<svg xmlns="http://www.w3.org/2000/svg" width="31.05" height="36.8" viewBox="0 0 31.05 36.8"><defs><style>.a{fill:none;stroke:#002a6e;stroke-linecap:round;stroke-linejoin:round;}</style></defs><g transform="translate(-920 -720)"><path class="a" d="M1704.313,1500a4.312,4.312,0,1,0,4.312,4.312A4.312,4.312,0,0,0,1704.313,1500Zm0,7.475a3.163,3.163,0,1,1,3.162-3.163A3.166,3.166,0,0,1,1704.313,1507.475Z" transform="translate(-768.787 -768.787)"/><path class="a" d="M949.51,733.262H948.2a12.815,12.815,0,0,0-.565-2.114l1.137-.657a1.539,1.539,0,0,0,.563-2.1l-.723-1.253a1.542,1.542,0,0,0-2.1-.563l-1.14.658a12.946,12.946,0,0,0-1.546-1.546l.658-1.14a1.541,1.541,0,0,0-.563-2.1l-1.253-.723a1.539,1.539,0,0,0-2.1.563l-.657,1.137a12.8,12.8,0,0,0-2.114-.565V721.54a1.541,1.541,0,0,0-1.54-1.54H934.8a1.541,1.541,0,0,0-1.54,1.54v1.315a12.8,12.8,0,0,0-2.114.565l-.657-1.137a1.539,1.539,0,0,0-2.1-.563l-1.253.723a1.541,1.541,0,0,0-.563,2.1l.658,1.14a12.95,12.95,0,0,0-1.546,1.546l-1.14-.658a1.541,1.541,0,0,0-2.1.563l-.723,1.253a1.539,1.539,0,0,0,.563,2.1l1.137.657a12.791,12.791,0,0,0-.565,2.114H921.54A1.541,1.541,0,0,0,920,734.8v1.447a1.541,1.541,0,0,0,1.54,1.54h1.315a12.793,12.793,0,0,0,.565,2.114l-1.137.657a1.539,1.539,0,0,0-.563,2.1l.723,1.253a1.541,1.541,0,0,0,2.1.563l.059-.034a3.646,3.646,0,0,1,.283-.271,6.15,6.15,0,0,1,.139-1.3l-1.057.61a.39.39,0,0,1-.532-.143l-.723-1.253a.39.39,0,0,1,.143-.532l1.562-.9a.575.575,0,0,0,.245-.715,11.647,11.647,0,0,1-.749-2.8.575.575,0,0,0-.57-.5H921.54a.39.39,0,0,1-.39-.39V734.8a.39.39,0,0,1,.39-.39h1.806a.575.575,0,0,0,.57-.5,11.648,11.648,0,0,1,.749-2.8.575.575,0,0,0-.245-.715l-1.562-.9a.39.39,0,0,1-.143-.532l.723-1.253a.39.39,0,0,1,.532-.143l1.565.9a.575.575,0,0,0,.741-.144,11.8,11.8,0,0,1,2.052-2.052.575.575,0,0,0,.144-.741l-.9-1.565a.4.4,0,0,1,.143-.532l1.253-.723a.39.39,0,0,1,.532.143l.9,1.562a.574.574,0,0,0,.715.245,11.648,11.648,0,0,1,2.8-.749.575.575,0,0,0,.5-.57V721.54a.39.39,0,0,1,.39-.39h1.447a.39.39,0,0,1,.39.39v1.806a.575.575,0,0,0,.5.57,11.646,11.646,0,0,1,2.8.749.575.575,0,0,0,.715-.245l.9-1.562a.39.39,0,0,1,.532-.143l1.253.723a.4.4,0,0,1,.143.532l-.9,1.565a.575.575,0,0,0,.144.741,11.8,11.8,0,0,1,2.052,2.052.575.575,0,0,0,.741.144l1.565-.9a.391.391,0,0,1,.532.143l.723,1.253a.39.39,0,0,1-.143.532l-1.562.9a.575.575,0,0,0-.245.715,11.653,11.653,0,0,1,.749,2.8.575.575,0,0,0,.57.5h1.806a.39.39,0,0,1,.39.39v1.447a.39.39,0,0,1-.39.39H947.7a.575.575,0,0,0-.57.5,11.652,11.652,0,0,1-.749,2.8.575.575,0,0,0,.245.715l1.562.9a.39.39,0,0,1,.143.532l-.723,1.253a.39.39,0,0,1-.532.143l-1.057-.61a6.164,6.164,0,0,1,.139,1.308,2.662,2.662,0,0,1,.284.264l.059.034a1.541,1.541,0,0,0,2.1-.563l.723-1.253a1.539,1.539,0,0,0-.563-2.1l-1.137-.657a12.817,12.817,0,0,0,.565-2.114h1.315a1.541,1.541,0,0,0,1.54-1.54V734.8A1.541,1.541,0,0,0,949.51,733.262Z"/><path class="a" d="M1342.1,2045.153a2.8,2.8,0,0,1,.545-.055h.627a4.2,4.2,0,0,1,4.21-3.45h1.141a5.5,5.5,0,0,1-1.291-1.143A5.327,5.327,0,0,0,1342.1,2045.153Z" transform="translate(-416.032 -1301.523)"/><path class="a" d="M2204.114,2041.648h1.141a4.2,4.2,0,0,1,4.21,3.45h.627a2.8,2.8,0,0,1,.544.055,5.327,5.327,0,0,0-5.232-4.648A5.509,5.509,0,0,1,2204.114,2041.648Z" transform="translate(-1265.655 -1301.523)"/><path class="a" d="M1289.912,2440h-17.825a1.546,1.546,0,0,0-1.557,1.794l1.232,8.648a1.934,1.934,0,0,0,1.881,1.632h14.712a1.934,1.934,0,0,0,1.881-1.632l1.232-8.648a1.546,1.546,0,0,0-1.557-1.794Zm.419,1.632-1.232,8.648a.8.8,0,0,1-.743.645h-14.712a.8.8,0,0,1-.743-.645l-1.232-8.648a.4.4,0,0,1,.419-.483h17.825a.4.4,0,0,1,.419.482Z" transform="translate(-345.474 -1695.275)"/><path class="a" d="M1862.012,2720a2.013,2.013,0,1,0,2.013,2.012A2.015,2.015,0,0,0,1862.012,2720Zm0,2.875a.863.863,0,1,1,.863-.863A.863.863,0,0,1,1862.012,2722.875Z" transform="translate(-926.487 -1971.25)"/></g></svg>