<svg xmlns="http://www.w3.org/2000/svg" width="21.229" height="21.257" viewBox="0 0 21.229 21.257"><defs><style>.a,.b{fill:#3e3e3e;}.b{fill-rule:evenodd;}</style></defs><g transform="translate(40.891 0)"><path class="a" d="M7.807,957.4a2.2,2.2,0,0,0-2.2,2.2V971.82a.732.732,0,1,0,1.464,0V959.6a.8.8,0,0,1,.732-.733H24.644a.8.8,0,0,1,.732.733v16.859a.8.8,0,0,1-.732.733h-12.2a.733.733,0,1,0,0,1.466h12.2a2.2,2.2,0,0,0,2.2-2.2V959.6a2.2,2.2,0,0,0-2.2-2.2Z" transform="translate(-46.502 -957.405)"/><path class="a" d="M248.714,122.111a.627.627,0,0,0-.891,0l-3.239,3.246-.834-1.254a.631.631,0,1,0-1.049.7l1.261,1.9a.639.639,0,0,0,.523.28.622.622,0,0,0,.445-.186L248.711,123A.629.629,0,0,0,248.714,122.111Z" transform="translate(-283.313 -105.903)"/><ellipse class="a" cx="0.961" cy="0.964" rx="0.961" ry="0.964" transform="translate(-37.842 3)"/><ellipse class="a" cx="0.961" cy="0.964" rx="0.961" ry="0.964" transform="translate(-37.842 6.882)"/><ellipse class="a" cx="0.961" cy="0.964" rx="0.961" ry="0.964" transform="translate(-37.842 10.742)"/><rect class="a" width="12" height="1.93" rx="0.965" transform="translate(-33.951 3)"/><rect class="a" width="11" height="1.93" rx="0.965" transform="translate(-33.951 7)"/><rect class="a" width="9" height="1.93" rx="0.965" transform="translate(-33.951 11)"/><g transform="translate(-19.951 -48)"><g transform="translate(-43.903 29)"><g transform="translate(36 33)"><path class="b" d="M36,33l5.9,2.444L36,37.889l2.53-2.444Z" transform="translate(-36 -33)"/></g></g></g></g></svg>