<svg xmlns="http://www.w3.org/2000/svg" width="21.257" height="21.257" viewBox="0 0 21.257 21.257">
  <g id="Group_6180" data-name="Group 6180" transform="translate(-1.046 0)">
    <path id="Path_2765" data-name="Path 2765" d="M7.807,957.4a2.2,2.2,0,0,0-2.2,2.2V971.82a.732.732,0,1,0,1.464,0V959.6a.8.8,0,0,1,.732-.733H24.644a.8.8,0,0,1,.732.733v16.859a.8.8,0,0,1-.732.733h-12.2a.733.733,0,1,0,0,1.466h12.2a2.2,2.2,0,0,0,2.2-2.2V959.6a2.2,2.2,0,0,0-2.2-2.2Z" transform="translate(-4.551 -957.405)" fill="#3e3e3e"/>
    <path id="Path_2815" data-name="Path 2815" d="M7.807,957.4a2.2,2.2,0,0,0-2.2,2.2V971.82a.732.732,0,1,0,1.464,0V959.6a.8.8,0,0,1,.732-.733H24.644a.8.8,0,0,1,.732.733v16.859a.8.8,0,0,1-.732.733h-12.2a.733.733,0,1,0,0,1.466h12.2a2.2,2.2,0,0,0,2.2-2.2V959.6a2.2,2.2,0,0,0-2.2-2.2Z" transform="translate(979.708 -5.597) rotate(90)" fill="#3e3e3e"/>
    <g id="Layer_2" data-name="Layer 2" transform="translate(5 3)">
      <g id="invisible_box" data-name="invisible box">
        <rect id="Rectangle_3782" data-name="Rectangle 3782" width="14" height="14" fill="none"/>
      </g>
      <g id="icons_Q2" data-name="icons Q2" transform="translate(1.729 0.864)">
        <path id="Path_2814" data-name="Path 2814" d="M11.187,3a3.17,3.17,0,1,0,3.17,3.17A3.17,3.17,0,0,0,11.187,3Zm0,5.187A2.017,2.017,0,1,1,13.2,6.17a2.017,2.017,0,0,1-2.017,2.017Zm4.927,3.746a9.019,9.019,0,0,0-4.927-1.441A9.249,9.249,0,0,0,6.259,11.9L6,12.077v2.449a.576.576,0,0,0,.576.576H15.8a.576.576,0,0,0,.576-.576V12.077Zm-.893,2.017H7.153V12.71a8.183,8.183,0,0,1,4.034-1.066,7.924,7.924,0,0,1,4.034,1.095Z" transform="translate(-6 -3)"/>
      </g>
    </g>
  </g>
</svg>
