<svg xmlns="http://www.w3.org/2000/svg" width="27.059" height="30.182" viewBox="0 0 27.059 30.182"><defs><style>.a{fill:#002a6e;}</style></defs><g transform="translate(-6 -3)"><path class="a" d="M28.9,3H6V33.182H33.059V7.163A4.163,4.163,0,0,0,28.9,3ZM13.285,32.141H7.041V4.041h6.244Zm18.733,0H14.326V4.041H28.9a3.122,3.122,0,0,1,3.122,3.122Z"/><path class="a" d="M12.081,13.163A2.081,2.081,0,1,0,10,11.081,2.081,2.081,0,0,0,12.081,13.163Zm0-3.122a1.041,1.041,0,1,1-1.041,1.041A1.041,1.041,0,0,1,12.081,10.041Z" transform="translate(-1.919 -2.878)"/><path class="a" d="M12.081,33.163A2.081,2.081,0,1,0,10,31.081,2.081,2.081,0,0,0,12.081,33.163Zm0-3.122a1.041,1.041,0,1,1-1.041,1.041A1.041,1.041,0,0,1,12.081,30.041Z" transform="translate(-1.919 -12.47)"/><path class="a" d="M12.081,51.163A2.081,2.081,0,1,0,10,49.081,2.081,2.081,0,0,0,12.081,51.163Zm0-3.122a1.041,1.041,0,1,1-1.041,1.041A1.041,1.041,0,0,1,12.081,48.041Z" transform="translate(-1.919 -21.104)"/><rect class="a" width="12" height="2" transform="translate(17 6.182)"/><rect class="a" width="12" height="1" transform="translate(17 10.182)"/><rect class="a" width="12" height="1" transform="translate(17 13.182)"/><rect class="a" width="12" height="1" transform="translate(17 16.182)"/></g></svg>