<svg xmlns="http://www.w3.org/2000/svg" width="30" height="47" viewBox="0 0 30 47">
  <g id="Group_1610" data-name="Group 1610" transform="translate(0.297)">
    <g id="Subtraction_3" data-name="Subtraction 3" transform="translate(-0.297 6)" fill="#fff">
      <path d="M 0.5000733733177185 39.7659912109375 L 0.5024102330207825 0.5 L 29.5 0.5 L 29.5 39.76168823242188 L 15.36036968231201 25.16336059570312 L 15.00119972229004 24.79253959655762 L 14.64204978942871 25.16338920593262 L 0.5000733733177185 39.7659912109375 Z" stroke="none"/>
      <path d="M 1.000146865844727 38.53089904785156 L 14.28287029266357 24.8155403137207 L 15.00117015838623 24.07385063171387 L 15.71951961517334 24.81550025939941 L 29 38.52680587768555 L 29 1 L 1.00238049030304 1 L 1.000146865844727 38.53089904785156 M -1.77635683940025e-15 41 L -1.77635683940025e-15 40.99853897094727 L 0.002439999952912331 0 L 30 0 L 30 40.99657821655273 L 15.00121974945068 25.51123046875 L 0.002439999952912331 40.99853897094727 L -1.77635683940025e-15 41 Z" stroke="none" fill="#707070"/>
    </g>
    <text id="_" data-name="+" transform="translate(14.703 27)" fill="#656363" font-size="27" font-family="BarlowSemiCondensed-Medium, Barlow Semi Condensed" font-weight="500" letter-spacing="0.042em"><tspan x="-6.318" y="0">+</tspan></text>
  </g>
</svg>
