<svg xmlns="http://www.w3.org/2000/svg" width="19.831" height="20.086" viewBox="0 0 19.831 20.086">
  <g id="noun_chat_2814294" transform="translate(-11 -12)">
    <g id="Group_5914" data-name="Group 5914" transform="translate(11 12)">
      <path id="Path_2787" data-name="Path 2787" d="M30.831,17.558A5.564,5.564,0,0,0,25.273,12H16.558A5.564,5.564,0,0,0,11,17.558v5.627a5.546,5.546,0,0,0,3.812,5.275.828.828,0,0,1,.567.8v1.55a1.278,1.278,0,0,0,2.058,1.015l3.773-2.9a.847.847,0,0,1,.515-.175h3.552a5.567,5.567,0,0,0,5.555-5.56Zm-1.545,5.625A4.017,4.017,0,0,1,25.273,27.2H21.722a2.4,2.4,0,0,0-1.455.494l-3.343,2.573v-1.01A2.373,2.373,0,0,0,15.3,26.992a4.007,4.007,0,0,1-2.751-3.809V17.558a4.017,4.017,0,0,1,4.013-4.013h8.718a4.017,4.017,0,0,1,4.01,4.013Z" transform="translate(-11 -12)" fill="#3e3e3e"/>
    </g>
  </g>
</svg>
