<svg xmlns="http://www.w3.org/2000/svg" width="13.051" height="13.068" viewBox="0 0 13.051 13.068">
  <g id="Group_6150" data-name="Group 6150" transform="translate(-5575 691.812)">
    <path id="Path_2808" data-name="Path 2808" d="M17.312,970.473a1.355,1.355,0,0,0,1.35-1.352v-7.51a.45.45,0,1,0-.9,0v7.51a.494.494,0,0,1-.45.451H6.961a.494.494,0,0,1-.45-.451V958.757a.494.494,0,0,1,.45-.451h7.5a.451.451,0,1,0,0-.9h-7.5a1.355,1.355,0,0,0-1.35,1.352v10.365a1.355,1.355,0,0,0,1.35,1.352Z" transform="translate(5569.389 -1649.217)" fill="#3e3e3e"/>
    <path id="Path_2809" data-name="Path 2809" d="M11.925,10.778V9.6H9.8l5.775-5.775L14.753,3,8.979,8.775V6.653H7.8v4.125Z" transform="translate(5571.263 -693.919)" fill="#3e3e3e"/>
  </g>
</svg>
