<svg xmlns="http://www.w3.org/2000/svg" width="22.583" height="22.583" viewBox="0 0 22.583 22.583"><defs><style>.a{isolation:isolate;}.b{fill:none;}</style></defs><g class="a"><path class="b" d="M0,0H22.583V22.583H0Z"/><path d="M17.174,2H5.882A1.881,1.881,0,0,0,4,3.882V17.056H5.882V3.882H17.174ZM20,5.764H9.646A1.881,1.881,0,0,0,7.764,7.646V20.819A1.881,1.881,0,0,0,9.646,22.7H20a1.881,1.881,0,0,0,1.882-1.882V7.646A1.881,1.881,0,0,0,20,5.764Zm0,15.056H9.646V7.646H20Z" transform="translate(-2.118 -1.059)"/></g></svg>