<svg xmlns="http://www.w3.org/2000/svg" width="19.859" height="21.75" viewBox="0 0 19.859 21.75"><g transform="translate(-4 -2)"><path d="M22.913,5.783H18.658V5.121A3.121,3.121,0,0,0,15.537,2H12.322A3.121,3.121,0,0,0,9.2,5.121v.662H4.946a.946.946,0,0,0,0,1.891H6.364V20.629A3.121,3.121,0,0,0,9.485,23.75h8.889a3.121,3.121,0,0,0,3.121-3.121V7.674h1.418a.946.946,0,1,0,0-1.891ZM11.092,5.121a1.229,1.229,0,0,1,1.229-1.229h3.215a1.229,1.229,0,0,1,1.229,1.229v.662H11.092ZM19.6,20.629a1.229,1.229,0,0,1-1.229,1.229H9.485a1.229,1.229,0,0,1-1.229-1.229V7.674H19.6Z"/><path d="M18.946,18.5a.946.946,0,0,0-.946.946v8.511a.946.946,0,0,0,1.891,0V19.446A.946.946,0,0,0,18.946,18.5Z" transform="translate(-7.38 -8.698)"/><path d="M28.946,18.5a.946.946,0,0,0-.946.946v8.511a.946.946,0,1,0,1.891,0V19.446A.946.946,0,0,0,28.946,18.5Z" transform="translate(-12.652 -8.698)"/></g></svg>