<svg id="Layer_2" data-name="Layer 2" xmlns="http://www.w3.org/2000/svg" width="18" height="18" viewBox="0 0 18 18">
  <g id="invisible_box" data-name="invisible box">
    <rect id="Rectangle_3538" data-name="Rectangle 3538" width="18" height="18" fill="none"/>
  </g>
  <g id="Q3_icons" data-name="Q3 icons" transform="translate(1.494 1.494)">
    <path id="Path_2812" data-name="Path 2812" d="M18.194,41.494H4.747a.747.747,0,0,1,0-1.494H18.194a.747.747,0,0,1,0,1.494Z" transform="translate(-4 -26.553)" fill="#595959"/>
    <path id="Path_2813" data-name="Path 2813" d="M16.225,13.525l2.241,2.2a.71.71,0,0,0,1.046,0l2.241-2.2a.784.784,0,0,0,.075-1.009.71.71,0,0,0-1.121-.075l-.971.971V4.747a.747.747,0,0,0-1.494,0v8.666l-.971-.971a.71.71,0,0,0-1.121.075A.784.784,0,0,0,16.225,13.525Z" transform="translate(-11.518 -4)" fill="#595959"/>
  </g>
</svg>
