<?xml version="1.0" encoding="UTF-8"?>
<svg width="700pt" height="700pt" version="1.1" viewBox="0 0 700 700" xmlns="http://www.w3.org/2000/svg" xmlns:xlink="http://www.w3.org/1999/xlink">
 <defs>
  <symbol id="s" overflow="visible">
   <path d="m0.25-0.015625c-0.011719 0.011719-0.027344 0.015625-0.046875 0.015625h-0.03125c-0.054687 0-0.09375-0.0078125-0.125-0.03125-0.023438-0.03125-0.03125-0.066406-0.03125-0.10938 0-0.039063 0.0078125-0.070313 0.03125-0.09375 0.03125-0.03125 0.070313-0.046875 0.125-0.046875 0.007813 0 0.019531 0.007812 0.03125 0.015625h0.046875v0.0625c-0.011719-0.007813-0.027344-0.015625-0.046875-0.015625-0.011719-0.007812-0.023437-0.015625-0.03125-0.015625-0.023437 0-0.042969 0.011719-0.0625 0.03125-0.011719 0.011719-0.015625 0.03125-0.015625 0.0625s0.0039062 0.058594 0.015625 0.078125c0.019531 0.011719 0.039063 0.015625 0.0625 0.015625h0.03125c0.019531-0.0078125 0.035156-0.019531 0.046875-0.03125z"/>
  </symbol>
  <symbol id="d" overflow="visible">
   <path d="m0.1875-0.14062c-0.011719-0.007813-0.023438-0.015625-0.03125-0.015625-0.023438 0-0.039062 0.007812-0.046875 0.015625-0.011719 0.011719-0.015625 0.027344-0.015625 0.046875v0.09375h-0.0625v-0.20312h0.0625v0.03125c0.007812-0.007813 0.019531-0.019531 0.03125-0.03125 0.007812-0.007813 0.023438-0.015625 0.046875-0.015625h0.015625z"/>
  </symbol>
  <symbol id="a" overflow="visible">
   <path d="m0.23438-0.10938v0.03125h-0.15625c0.0078125 0.011719 0.015625 0.023438 0.015625 0.03125h0.046875 0.03125c0.019531 0 0.039063-0.0039062 0.0625-0.015625v0.046875c-0.023437 0.011719-0.042969 0.015625-0.0625 0.015625h-0.03125c-0.042969 0-0.074219-0.0039062-0.09375-0.015625-0.023438-0.019531-0.03125-0.046875-0.03125-0.078125 0-0.039062 0.0078125-0.070312 0.03125-0.09375 0.019531-0.019531 0.046875-0.03125 0.078125-0.03125s0.054688 0.011719 0.078125 0.03125c0.019531 0.023438 0.03125 0.046875 0.03125 0.078125zm-0.0625-0.015625c0-0.007812-0.007813-0.019531-0.015625-0.03125-0.011719-0.007812-0.023438-0.015625-0.03125-0.015625-0.011719 0-0.023438 0.007813-0.03125 0.015625 0 0.011719-0.0078125 0.023438-0.015625 0.03125z"/>
  </symbol>
  <symbol id="j" overflow="visible">
   <path d="m0.125-0.09375c-0.011719 0-0.023438 0.0078125-0.03125 0.015625-0.011719 0-0.015625 0.0078125-0.015625 0.015625v0.015625h0.03125 0.03125c0.007813-0.0078125 0.015625-0.019531 0.015625-0.03125v-0.015625zm0.09375-0.03125v0.125h-0.0625v-0.03125c-0.011719 0.011719-0.023438 0.023438-0.03125 0.03125h-0.03125c-0.023438 0-0.042969-0.0039062-0.0625-0.015625-0.011719-0.0078125-0.015625-0.023438-0.015625-0.046875 0-0.019531 0.0039062-0.035156 0.015625-0.046875 0.019531-0.007813 0.050781-0.015625 0.09375-0.015625h0.03125v-0.015625c0-0.007813-0.007812-0.015625-0.015625-0.015625 0-0.007812-0.011719-0.015625-0.03125-0.015625-0.011719 0-0.027344 0.007813-0.046875 0.015625h-0.03125v-0.046875h0.03125c0.019531-0.007813 0.039062-0.015625 0.0625-0.015625 0.03125 0 0.050781 0.011719 0.0625 0.03125 0.019531 0.011719 0.03125 0.03125 0.03125 0.0625z"/>
  </symbol>
  <symbol id="c" overflow="visible">
   <path d="m0.10938-0.26562v0.0625h0.0625v0.046875h-0.0625v0.078125 0.03125h0.015625 0.046875v0.046875h-0.0625c-0.023438 0-0.042969-0.0039062-0.0625-0.015625-0.011719-0.0078125-0.015625-0.03125-0.015625-0.0625v-0.078125h-0.03125v-0.046875h0.03125v-0.0625z"/>
  </symbol>
  <symbol id="i" overflow="visible">
   <path d="m0.17188-0.17188v-0.125h0.0625v0.29688h-0.0625v-0.03125c-0.011719 0.011719-0.023437 0.023438-0.03125 0.03125h-0.03125c-0.03125 0-0.058594-0.0039062-0.078125-0.015625-0.011719-0.019531-0.015625-0.046875-0.015625-0.078125 0-0.039062 0.0039062-0.070312 0.015625-0.09375 0.019531-0.019531 0.046875-0.03125 0.078125-0.03125 0.007813 0 0.019531 0.007812 0.03125 0.015625 0.007813 0.011719 0.019531 0.023437 0.03125 0.03125zm-0.046875 0.125c0.007812 0 0.019531-0.0039062 0.03125-0.015625 0.007812-0.0078125 0.015625-0.019531 0.015625-0.03125 0-0.019531-0.007813-0.035156-0.015625-0.046875-0.011719-0.019531-0.023438-0.03125-0.03125-0.03125-0.011719 0-0.023438 0.011719-0.03125 0.03125-0.011719 0.011719-0.015625 0.027344-0.015625 0.046875 0 0.011719 0.0039062 0.023438 0.015625 0.03125 0.007812 0.011719 0.019531 0.015625 0.03125 0.015625z"/>
  </symbol>
  <symbol id="h" overflow="visible">
   <path d="m0.14062-0.046875c0.019531 0 0.03125-0.0039062 0.03125-0.015625 0.007813-0.0078125 0.015625-0.019531 0.015625-0.03125 0-0.019531-0.007812-0.035156-0.015625-0.046875 0-0.019531-0.011719-0.03125-0.03125-0.03125-0.011719 0-0.023437 0.011719-0.03125 0.03125-0.011719 0.011719-0.015625 0.027344-0.015625 0.046875 0 0.011719 0.0039062 0.023438 0.015625 0.03125 0.007813 0.011719 0.019531 0.015625 0.03125 0.015625zm-0.046875-0.125c0.007812-0.007813 0.019531-0.019531 0.03125-0.03125 0.007812-0.007813 0.023438-0.015625 0.046875-0.015625 0.019531 0 0.035156 0.011719 0.046875 0.03125 0.019531 0.023438 0.03125 0.054688 0.03125 0.09375 0 0.03125-0.011719 0.058594-0.03125 0.078125-0.011719 0.011719-0.027344 0.015625-0.046875 0.015625h-0.046875c-0.011719-0.0078125-0.023438-0.019531-0.03125-0.03125v0.03125h-0.0625v-0.29688h0.0625z"/>
  </symbol>
  <symbol id="g" overflow="visible">
   <path d="m0-0.20312h0.078125l0.046875 0.14062 0.046875-0.14062h0.0625l-0.078125 0.21875c-0.011719 0.019531-0.023438 0.035156-0.03125 0.046875-0.011719 0.0078125-0.027344 0.015625-0.046875 0.015625h-0.046875v-0.046875h0.03125 0.015625c0.0078125 0 0.015625-0.0078125 0.015625-0.015625v-0.015625z"/>
  </symbol>
  <symbol id="e" overflow="visible">
   <path d="m0.03125-0.20312h0.0625v0.20312c0 0.019531-0.0078125 0.035156-0.015625 0.046875-0.011719 0.019531-0.03125 0.03125-0.0625 0.03125h-0.03125v-0.046875h0.015625 0.015625c0.0078125 0 0.015625-0.011719 0.015625-0.03125zm0-0.09375h0.0625v0.0625h-0.0625z"/>
  </symbol>
  <symbol id="b" overflow="visible">
   <path d="m0.125-0.17188c-0.011719 0-0.023438 0.007813-0.03125 0.015625-0.011719 0.011719-0.015625 0.03125-0.015625 0.0625 0 0.011719 0.0039062 0.023438 0.015625 0.03125 0.007812 0.011719 0.019531 0.015625 0.03125 0.015625 0.019531 0 0.03125-0.0039062 0.03125-0.015625 0.007812-0.0078125 0.015625-0.019531 0.015625-0.03125 0-0.03125-0.007813-0.050781-0.015625-0.0625 0-0.007812-0.011719-0.015625-0.03125-0.015625zm0-0.046875c0.039062 0 0.066406 0.011719 0.078125 0.03125 0.019531 0.023438 0.03125 0.054688 0.03125 0.09375 0 0.03125-0.011719 0.058594-0.03125 0.078125-0.011719 0.011719-0.039063 0.015625-0.078125 0.015625-0.03125 0-0.058594-0.0039062-0.078125-0.015625-0.023438-0.019531-0.03125-0.046875-0.03125-0.078125 0-0.039062 0.0078125-0.070312 0.03125-0.09375 0.019531-0.019531 0.046875-0.03125 0.078125-0.03125z"/>
  </symbol>
  <symbol id="f" overflow="visible">
   <path d="m0.23438-0.125v0.125h-0.0625v-0.09375-0.03125-0.015625c0-0.007813-0.007813-0.015625-0.015625-0.015625h-0.015625c-0.011719 0-0.023437 0.007812-0.03125 0.015625-0.011719 0.011719-0.015625 0.027344-0.015625 0.046875v0.09375h-0.0625v-0.20312h0.0625v0.03125c0.007812-0.007813 0.019531-0.019531 0.03125-0.03125 0.007812-0.007813 0.023438-0.015625 0.046875-0.015625 0.019531 0 0.035156 0.011719 0.046875 0.03125 0.007812 0.011719 0.015625 0.03125 0.015625 0.0625z"/>
  </symbol>
  <symbol id="r" overflow="visible">
   <path d="m0.03125-0.20312h0.0625v0.20312h-0.0625zm0-0.09375h0.0625v0.0625h-0.0625z"/>
  </symbol>
  <symbol id="q" overflow="visible">
   <path d="m0.17188-0.29688v0.0625h-0.046875-0.015625v0.015625 0.015625h0.0625v0.046875h-0.0625v0.15625h-0.0625v-0.15625h-0.046875v-0.046875h0.046875v-0.015625c0-0.019531 0.0039062-0.035156 0.015625-0.046875 0.0078125-0.019531 0.03125-0.03125 0.0625-0.03125z"/>
  </symbol>
  <symbol id="p" overflow="visible">
   <path d="m0.21875-0.17188c0.007812-0.007813 0.019531-0.019531 0.03125-0.03125 0.007812-0.007813 0.023438-0.015625 0.046875-0.015625 0.019531 0 0.035156 0.011719 0.046875 0.03125 0.007812 0.011719 0.015625 0.03125 0.015625 0.0625v0.125h-0.0625v-0.10938-0.015625c0-0.007812-0.007813-0.015625-0.015625-0.015625 0-0.007813-0.007812-0.015625-0.015625-0.015625-0.011719 0-0.023437 0.007812-0.03125 0.015625v0.046875 0.09375h-0.0625v-0.10938c0-0.019531-0.007813-0.03125-0.015625-0.03125 0-0.007813-0.007812-0.015625-0.015625-0.015625-0.011719 0-0.023437 0.007812-0.03125 0.015625-0.011719 0.011719-0.015625 0.027344-0.015625 0.046875v0.09375h-0.0625v-0.20312h0.0625v0.03125c0.007812-0.007813 0.019531-0.019531 0.03125-0.03125 0.007812-0.007813 0.019531-0.015625 0.03125-0.015625 0.019531 0 0.035156 0.007812 0.046875 0.015625 0.007813 0.011719 0.015625 0.023437 0.015625 0.03125z"/>
  </symbol>
  <symbol id="o" overflow="visible">
   <path d="m0.23438-0.125v0.125h-0.0625v-0.09375-0.03125-0.015625c0-0.007813-0.007813-0.015625-0.015625-0.015625h-0.015625c-0.011719 0-0.023437 0.007812-0.03125 0.015625-0.011719 0.011719-0.015625 0.027344-0.015625 0.046875v0.09375h-0.0625v-0.29688h0.0625v0.125c0.007812-0.007813 0.019531-0.019531 0.03125-0.03125 0.007812-0.007813 0.023438-0.015625 0.046875-0.015625 0.019531 0 0.035156 0.011719 0.046875 0.03125 0.007812 0.011719 0.015625 0.03125 0.015625 0.0625z"/>
  </symbol>
  <symbol id="n" overflow="visible">
   <path d="m0.03125-0.28125h0.078125l0.10938 0.1875v-0.1875h0.0625v0.28125h-0.078125l-0.10938-0.1875v0.1875h-0.0625z"/>
  </symbol>
  <symbol id="m" overflow="visible">
   <path d="m0.03125-0.078125v-0.125h0.0625v0.015625 0.046875 0.03125 0.046875c0.007812 0.011719 0.015625 0.015625 0.015625 0.015625h0.015625c0.007812 0 0.019531-0.0039062 0.03125-0.015625 0.007812-0.0078125 0.015625-0.023438 0.015625-0.046875v-0.09375h0.0625v0.20312h-0.0625v-0.03125c-0.011719 0.011719-0.023437 0.023438-0.03125 0.03125h-0.046875c-0.023438 0-0.039062-0.0039062-0.046875-0.015625-0.011719-0.019531-0.015625-0.039062-0.015625-0.0625z"/>
  </symbol>
  <symbol id="l" overflow="visible">
   <path d="m0.03125-0.28125h0.125c0.03125 0 0.054688 0.011719 0.078125 0.03125 0.019531 0.011719 0.03125 0.03125 0.03125 0.0625s-0.011719 0.058594-0.03125 0.078125c-0.023437 0.011719-0.046875 0.015625-0.078125 0.015625h-0.046875v0.09375h-0.078125zm0.078125 0.0625v0.078125h0.03125c0.019531 0 0.03125-0.003906 0.03125-0.015625 0.007813-0.007812 0.015625-0.019531 0.015625-0.03125 0-0.007812-0.007812-0.015625-0.015625-0.015625 0-0.007813-0.011719-0.015625-0.03125-0.015625z"/>
  </symbol>
  <symbol id="k" overflow="visible">
   <path d="m0.20312-0.20312v0.0625c-0.011719-0.007813-0.023437-0.015625-0.03125-0.015625-0.011719-0.007812-0.023437-0.015625-0.03125-0.015625-0.011719 0-0.027344 0.011719-0.046875 0.03125-0.011719 0.011719-0.015625 0.027344-0.015625 0.046875 0 0.011719 0.0039062 0.023438 0.015625 0.03125 0.019531 0.011719 0.035156 0.015625 0.046875 0.015625h0.03125c0.007813 0 0.019531-0.0039062 0.03125-0.015625v0.0625h-0.03125-0.03125c-0.042969 0-0.074219-0.0039062-0.09375-0.015625-0.023438-0.019531-0.03125-0.046875-0.03125-0.078125 0-0.039062 0.0078125-0.070312 0.03125-0.09375 0.019531-0.019531 0.050781-0.03125 0.09375-0.03125 0.007813 0 0.019531 0.007812 0.03125 0.015625h0.03125z"/>
  </symbol>
 </defs>
 <g>
  <path d="m147.13 203.39c15.191-15.117 39.91-15.117 55.023 0l108.99 108.99v-273.54c0-21.391 17.461-38.852 38.852-38.852s38.926 17.461 38.926 38.852v273.54l108.99-108.99c15.117-15.117 39.832-15.117 54.949 0 15.117 15.117 15.117 39.832 0 55.023l-175.36 175.36c-15.117 15.117-39.832 15.117-55.023 0l-175.36-175.36c-15.117-15.191-15.117-39.91 0-55.023z"/>
  <path d="m36.555 520.39v-103.62c0-21.77 17.836-39.605 39.605-39.605 21.77 0 39.605 17.836 39.605 39.605v64.02h468.54v-64.02c0-21.77 17.762-39.605 39.605-39.605 21.77 0 39.531 17.836 39.531 39.605v103.62c0 20.711-19.047 39.605-39.531 39.605h-547.75c-21.77 0-39.605-17.836-39.605-39.605z"/>
  <use x="36.554688" y="561.132812" xlink:href="#s"/>
  <use x="36.832031" y="561.132812" xlink:href="#d"/>
  <use x="37.019531" y="561.132812" xlink:href="#a"/>
  <use x="37.273438" y="561.132812" xlink:href="#j"/>
  <use x="37.527344" y="561.132812" xlink:href="#c"/>
  <use x="37.710938" y="561.132812" xlink:href="#a"/>
  <use x="37.964844" y="561.132812" xlink:href="#i"/>
  <use x="38.367188" y="561.132812" xlink:href="#h"/>
  <use x="38.640625" y="561.132812" xlink:href="#g"/>
  <use x="39.015625" y="561.132812" xlink:href="#e"/>
  <use x="39.144531" y="561.132812" xlink:href="#b"/>
  <use x="39.40625" y="561.132812" xlink:href="#f"/>
  <use x="39.675781" y="561.132812" xlink:href="#r"/>
  <use x="36.554688" y="561.511719" xlink:href="#q"/>
  <use x="36.71875" y="561.511719" xlink:href="#d"/>
  <use x="36.90625" y="561.511719" xlink:href="#b"/>
  <use x="37.164062" y="561.511719" xlink:href="#p"/>
  <use x="37.691406" y="561.511719" xlink:href="#c"/>
  <use x="37.871094" y="561.511719" xlink:href="#o"/>
  <use x="38.140625" y="561.511719" xlink:href="#a"/>
  <use x="38.527344" y="561.511719" xlink:href="#n"/>
  <use x="38.84375" y="561.511719" xlink:href="#b"/>
  <use x="39.101562" y="561.511719" xlink:href="#m"/>
  <use x="39.371094" y="561.511719" xlink:href="#f"/>
  <use x="39.773438" y="561.511719" xlink:href="#l"/>
  <use x="40.050781" y="561.511719" xlink:href="#d"/>
  <use x="40.238281" y="561.511719" xlink:href="#b"/>
  <use x="40.496094" y="561.511719" xlink:href="#e"/>
  <use x="40.625" y="561.511719" xlink:href="#a"/>
  <use x="40.882812" y="561.511719" xlink:href="#k"/>
  <use x="41.105469" y="561.511719" xlink:href="#c"/>
 </g>
</svg>
