<svg xmlns="http://www.w3.org/2000/svg" width="21.229" height="21.938" viewBox="0 0 21.229 21.938">
  <g id="review" transform="translate(-1.06 -1)">
    <g id="Group_5852" data-name="Group 5852" transform="translate(9.499 4.16)">
      <g id="Group_5839" data-name="Group 5839">
        <path id="Path_2723" data-name="Path 2723" d="M223.05,179.536a1.908,1.908,0,0,0-2.684.233l-5.781,6.841a1.916,1.916,0,0,0-.394.782l-.591,2.472a.635.635,0,0,0,.871.731l2.332-1.011a1.913,1.913,0,0,0,.7-.522l5.781-6.841A1.909,1.909,0,0,0,223.05,179.536Zm-6.752,8.883-1.166.505.3-1.236c.043-.181.122-.25.348-.517l.974.817C216.519,188.259,216.465,188.346,216.3,188.419Zm1.271-1.4-.974-.817,3.512-4.156.974.817Zm4.744-5.614-.412.487-.974-.817.41-.485a.635.635,0,0,1,.975.815Z" transform="translate(-213.582 -179.091)" fill="#3e3e3e" stroke="#fff" stroke-width="0.3"/>
      </g>
    </g>
    <g id="Group_5853" data-name="Group 5853" transform="translate(4.034 6.512)">
      <g id="Group_5841" data-name="Group 5841" transform="translate(0 0)">
        <path id="Path_2724" data-name="Path 2724" d="M67.99,211H61.635a.635.635,0,0,0,0,1.271H67.99a.635.635,0,0,0,0-1.271Z" transform="translate(-61 -211)" fill="#3e3e3e"/>
      </g>
    </g>
    <g id="Group_5854" data-name="Group 5854" transform="translate(4.034 10.325)">
      <g id="Group_5843" data-name="Group 5843" transform="translate(0 0)">
        <path id="Path_2725" data-name="Path 2725" d="M65.448,301H61.635a.635.635,0,0,0,0,1.271h3.813a.635.635,0,0,0,0-1.271Z" transform="translate(-61 -301)" fill="#3e3e3e"/>
      </g>
    </g>
    <g id="Group_5855" data-name="Group 5855" transform="translate(4.034 14.138)">
      <g id="Group_5845" data-name="Group 5845">
        <path id="Path_2726" data-name="Path 2726" d="M65.448,391H61.635a.635.635,0,0,0,0,1.271h3.813a.635.635,0,0,0,0-1.271Z" transform="translate(-61 -391)" fill="#3e3e3e"/>
      </g>
    </g>
    <path id="Path_2763" data-name="Path 2763" d="M7.807,957.4a2.2,2.2,0,0,0-2.2,2.2V971.82a.732.732,0,1,0,1.464,0V959.6a.8.8,0,0,1,.732-.733H24.644a.8.8,0,0,1,.732.733v16.859a.8.8,0,0,1-.732.733h-12.2a.733.733,0,1,0,0,1.466h12.2a2.2,2.2,0,0,0,2.2-2.2V959.6a2.2,2.2,0,0,0-2.2-2.2Z" transform="translate(-4.551 -956.405)" fill="#3e3e3e"/>
    <path id="Path_2764" data-name="Path 2764" d="M45.137,47.76l-.655-1.124H43V43h4.274v3.636H45.793Zm-1.852-1.454h1.368l.484.859.484-.859h1.368V43.331h-3.7Z" transform="translate(-41.627 -25.318)" fill="#3e3e3e" stroke="#3e3e3e" stroke-width="0.5"/>
  </g>
</svg>
