<svg xmlns="http://www.w3.org/2000/svg" width="21.326" height="21.293" viewBox="0 0 21.326 21.293">
  <g id="Group_6149" data-name="Group 6149" transform="translate(-5485.963 796)">
    <g id="noun_expert_2263180" transform="translate(5480.708 -804)">
      <g id="Group_5858" data-name="Group 5858" transform="translate(10 10)">
        <g id="Group_5857" data-name="Group 5857" transform="translate(0)">
          <path id="Path_2739" data-name="Path 2739" d="M27.416,40a.238.238,0,0,0-.225.251l.233,4.42-.471.471-.471-.471.233-4.42A.239.239,0,0,0,26.489,40a.234.234,0,0,0-.251.225L26,44.749a.239.239,0,0,0,.07.181l.715.715a.238.238,0,0,0,.337,0l.715-.715a.239.239,0,0,0,.07-.181l-.238-4.526A.239.239,0,0,0,27.416,40Z" transform="translate(-21.189 -31.852)" fill="#3e3e3e" stroke="#3e3e3e" stroke-width="0.3"/>
          <path id="Path_2740" data-name="Path 2740" d="M11.191,22.386h-.715V18.515a1.075,1.075,0,0,1,.579-.882l2.82-1.226a.238.238,0,0,0,.143-.218v-.833a.247.247,0,0,0-.136-.215s-.432-.228-.707-1.219a.243.243,0,0,0-.055-.1,1.272,1.272,0,0,1-.274-.536.683.683,0,0,1,.021-.386.238.238,0,0,0,.143-.258,2.484,2.484,0,0,1,.181-1.484,1.984,1.984,0,0,1,1.572-.681,1.987,1.987,0,0,1,1.573.681,2.5,2.5,0,0,1,.181,1.484.239.239,0,0,0,.143.258.684.684,0,0,1,.021.387,1.274,1.274,0,0,1-.273.534.236.236,0,0,0-.055.1c-.275.99-.7,1.217-.7,1.217a.238.238,0,0,0-.141.217v.833a.238.238,0,0,0,.143.218l2.82,1.226a.783.783,0,0,1,.188.119.238.238,0,1,0,.3-.367,1.263,1.263,0,0,0-.3-.189l-2.677-1.164v-.547A2.556,2.556,0,0,0,16.8,14.1a1.733,1.733,0,0,0,.351-.718,1,1,0,0,0-.141-.812,2.78,2.78,0,0,0-.274-1.676A2.419,2.419,0,0,0,14.764,10a2.415,2.415,0,0,0-1.969.893,2.779,2.779,0,0,0-.274,1.676,1.006,1.006,0,0,0-.142.811,1.732,1.732,0,0,0,.351.719,2.554,2.554,0,0,0,.812,1.386v.547L10.865,17.2A1.538,1.538,0,0,0,10,18.515v4.11a.238.238,0,0,0,.238.238h.953a.238.238,0,1,0,0-.476Z" transform="translate(-9 -9)" fill="#3e3e3e" stroke="#3e3e3e" stroke-width="0.3"/>
          <path id="Path_2741" data-name="Path 2741" d="M18.069,62.079a.242.242,0,0,0,0,.338.245.245,0,0,0,.169.069.236.236,0,0,0,.238-.238.245.245,0,0,0-.069-.169A.249.249,0,0,0,18.069,62.079Z" transform="translate(-15.094 -48.623)" fill="#3e3e3e" stroke="#3e3e3e" stroke-width="0.3"/>
          <path id="Path_2742" data-name="Path 2742" d="M41.349,39.476l-1.671-.292-.794-1.5a.168.168,0,0,0-.285,0l-.794,1.5-1.671.292a.161.161,0,0,0-.088.271l1.18,1.219-.239,1.68a.161.161,0,0,0,.23.168l1.524-.746,1.524.746a.161.161,0,0,0,.231-.168l-.239-1.68,1.18-1.219a.161.161,0,0,0-.088-.271ZM39.97,40.8a.161.161,0,0,0-.044.135l.207,1.456-1.321-.647a.163.163,0,0,0-.071-.016.16.16,0,0,0-.071.016l-1.321.647.207-1.456a.162.162,0,0,0-.044-.135l-1.024-1.057,1.449-.253a.161.161,0,0,0,.115-.084l.688-1.3.689,1.3a.162.162,0,0,0,.115.084l1.449.253Z" transform="translate(-40.492 -23.791)" fill="#3e3e3e" stroke="#3e3e3e" stroke-width="0.5"/>
          <path id="Path_2743" data-name="Path 2743" d="M56.091,21.42l-1.177-.206-.559-1.056a.248.248,0,0,0-.421,0l-.559,1.056L52.2,21.42a.238.238,0,0,0-.13.4l.831.858-.168,1.183a.238.238,0,0,0,.341.247l1.073-.526,1.073.526a.238.238,0,0,0,.341-.247l-.168-1.183.831-.858a.238.238,0,0,0-.13-.4ZM54.966,22.43a.238.238,0,0,0-.065.2l.121.853-.774-.379a.243.243,0,0,0-.1-.024.239.239,0,0,0-.1.024l-.774.379.121-.853a.239.239,0,0,0-.065-.2l-.6-.619.849-.148a.238.238,0,0,0,.17-.123l.4-.761.4.761a.239.239,0,0,0,.17.123l.849.148Z" transform="translate(-42.996 -10.65)" fill="#3e3e3e" stroke="#3e3e3e" stroke-width="0.3"/>
        </g>
      </g>
    </g>
    <path id="Path_2765" data-name="Path 2765" d="M7.807,957.4a2.2,2.2,0,0,0-2.2,2.2V971.82a.732.732,0,1,0,1.464,0V959.6a.8.8,0,0,1,.732-.733H24.644a.8.8,0,0,1,.732.733v16.859a.8.8,0,0,1-.732.733h-12.2a.733.733,0,1,0,0,1.466h12.2a2.2,2.2,0,0,0,2.2-2.2V959.6a2.2,2.2,0,0,0-2.2-2.2Z" transform="translate(5480.449 -1753.405)" fill="#3e3e3e"/>
  </g>
</svg>
