<svg xmlns="http://www.w3.org/2000/svg" width="18.607" height="17.749" viewBox="0 0 18.607 17.749"><defs><style>.a{fill:#c7c7c7;}</style></defs><g transform="translate(0 0)"><path class="a" d="M10.014,9.743l-5.869.651a.561.561,0,0,0-.469.382.551.551,0,0,0,.156.58C5.576,12.948,8.2,15.332,8.2,15.332S7.478,18.8,7,21.114a.561.561,0,0,0,.218.564.553.553,0,0,0,.6.031c2.054-1.168,5.132-2.923,5.132-2.923l5.129,2.925a.555.555,0,0,0,.82-.595c-.477-2.315-1.193-5.783-1.193-5.783s2.622-2.384,4.366-3.973a.562.562,0,0,0,.156-.584.555.555,0,0,0-.468-.38c-2.349-.263-5.87-.653-5.87-.653L13.459,4.362a.563.563,0,0,0-.508-.328.556.556,0,0,0-.5.328C11.472,6.514,10.014,9.743,10.014,9.743Z" transform="translate(-3.649 -4.034)"/></g></svg>