<svg xmlns="http://www.w3.org/2000/svg" xmlns:xlink="http://www.w3.org/1999/xlink" width="16" height="16" viewBox="0 0 16 16"><defs><style>.a,.b{fill:#16222e;}.a{clip-rule:evenodd;}.c{clip-path:url(#a);}.d{isolation:isolate;}.e{clip-path:url(#b);}.f{clip-path:url(#c);}.g{clip-path:url(#d);}</style><clipPath id="a"><path class="a" d="M27.811-14.573a7.4,7.4,0,0,1-4.383,1.43A7.429,7.429,0,0,1,16-20.571,7.429,7.429,0,0,1,23.429-28a7.429,7.429,0,0,1,7.429,7.429,7.4,7.4,0,0,1-1.43,4.383l.021.02,2.217,2.217a1.143,1.143,0,0,1,0,1.616,1.143,1.143,0,0,1-1.616,0l-2.217-2.217Zm.924-6a5.306,5.306,0,0,1-5.306,5.306,5.306,5.306,0,0,1-5.306-5.306,5.306,5.306,0,0,1,5.306-5.306A5.306,5.306,0,0,1,28.735-20.571Z" transform="translate(-16 28)"/></clipPath><clipPath id="b"><rect class="b" width="27" height="27" transform="translate(0 0.083)"/></clipPath><clipPath id="c"><path class="b" d="M16-11H33V-28H16Z" transform="translate(-16 28)"/></clipPath><clipPath id="d"><path class="b" d="M13-31H35V-9H13Z" transform="translate(-13 31)"/></clipPath></defs><g class="c"><g class="d" transform="translate(-4.72 -5)"><g class="e"><g class="f" transform="translate(4.72 5)"><path class="b" d="M11-33H37V-7H11Z" transform="translate(-16 28)"/></g><g class="g" transform="translate(1.72 2)"><g class="f" transform="translate(3 3)"><path class="b" d="M8-36H40V-4H8Z" transform="translate(-16 28)"/></g></g></g></g></g></svg>