<svg xmlns="http://www.w3.org/2000/svg" width="29.995" height="29.974" viewBox="0 0 29.995 29.974"><defs><style>.a{fill:none;stroke:#002a6e;stroke-linecap:round;stroke-linejoin:round;}</style></defs><g transform="translate(0.508 0.5)"><path class="a" d="M519.9,312.087a3,3,0,0,0-2.414,1.224v-5.465a3.018,3.018,0,1,1,0-3.589V297h-.6a10.865,10.865,0,0,0-10.865,10.865l-2.848,4.746a1.207,1.207,0,0,0,.654,1.766l2.194.732v3.773a2.422,2.422,0,0,0,2.415,2.414h2.49a1.207,1.207,0,0,1,1.207,1.207v3.471h5.357V316.9a3.014,3.014,0,1,0,2.414-4.813Z" transform="translate(-502.996 -296.996)"/><path class="a" d="M537.75,312.607l-2.848-4.746A10.865,10.865,0,0,0,524.036,297h-.6v7.26a3.018,3.018,0,1,0,0,3.589v5.465a3.018,3.018,0,1,1,0,3.589v9.071h5.357V322.5A1.207,1.207,0,0,1,530,321.292h2.49a2.422,2.422,0,0,0,2.414-2.414V315.1l2.194-.732A1.207,1.207,0,0,0,537.75,312.607Z" transform="translate(-508.943 -296.996)"/></g></svg>