<svg xmlns="http://www.w3.org/2000/svg" xmlns:xlink="http://www.w3.org/1999/xlink" width="16" height="12" viewBox="0 0 16 12"><defs><style>.a{fill:#2d4f86;}.b{clip-path:url(#a);}</style><clipPath id="a"><path class="a" d="M1,12a1,1,0,0,1,0-2h9a1,1,0,0,1,0,2ZM1,7A1,1,0,0,1,1,5H15a1,1,0,0,1,0,2ZM1,2A1,1,0,0,1,1,0H15a1,1,0,0,1,0,2Z"/></clipPath></defs><path class="a" d="M1,12a1,1,0,0,1,0-2h9a1,1,0,0,1,0,2ZM1,7A1,1,0,0,1,1,5H15a1,1,0,0,1,0,2ZM1,2A1,1,0,0,1,1,0H15a1,1,0,0,1,0,2Z"/><g class="b"><g transform="translate(-3 -5)"><rect class="a" width="22" height="22"/></g></g></svg>