<svg xmlns="http://www.w3.org/2000/svg" width="26.724" height="31.209" viewBox="0 0 26.724 31.209"><defs><style>.a,.b{fill:#002a6e;fill-rule:evenodd;}.b,.c{stroke:#002a6e;stroke-miterlimit:2.613;stroke-width:0.5px;}.c{fill:none;}</style></defs><g transform="translate(-30.94 -316.296)"><path class="a" d="M309.6,390.431a8.349,8.349,0,0,1,4.93,10.706,8.044,8.044,0,0,1-1.831,2.958l-.563-.563a7.864,7.864,0,0,0,2.113-5.212,7.437,7.437,0,0,0-5.353-7.184l.423-.7c0-.141.141-.141.282,0Z" transform="translate(-260.102 -66.137)"/><path class="b" d="M312.061,391.053a7.667,7.667,0,1,1-5.353,14.368,7.591,7.591,0,0,1-1.831-.986h.282a4.762,4.762,0,0,0,1.69.845,7.444,7.444,0,1,0-4.367-9.579c0,.141-.141.282-.141.423l-.141-.141c0-.141,0-.141.141-.282a7.319,7.319,0,0,1,9.72-4.649Z" transform="translate(-262.839 -66.055)"/><path class="a" d="M313.194,400.863a7.677,7.677,0,0,1-4.93,2.254H307.7l.141-.986h.282a7.67,7.67,0,0,0,4.226-1.831l.845.563Z" transform="translate(-260.592 -62.061)"/><path class="c" d="M321.052,406.875l-.563.845,1.972,2.817c.141.282.282.563,0,.7l-1.69,1.55c-.282.141-.423.141-.7-.141l-2.676-2.395-1.69.845.282,3.381c0,.282,0,.563-.423.7l-2.254.423c-.282,0-.423-.141-.563-.423l-1.127-3.522-1.972-.141-1.409,3.1c-.141.282-.282.563-.7.423l-2.113-.7c-.282-.141-.282-.282-.282-.7l.7-3.522-1.55-1.127-2.817,1.972c-.282.141-.563.282-.7,0l-1.55-1.69c-.141-.282-.141-.423.141-.7l2.395-2.676-.845-1.69-3.381.282c-.282,0-.563,0-.7-.423L296.4,401.8c0-.282.141-.423.423-.563l3.522-1.127.141-1.972-3.1-1.409c-.282-.141-.563-.282-.423-.7l.7-2.113c.141-.282.282-.282.7-.282l3.522.7,1.127-1.55-1.972-2.817c-.141-.282-.282-.563,0-.7l1.69-1.549c.282-.141.423-.141.7.141l2.676,2.395,1.69-.845-.282-3.381c0-.282,0-.563.423-.7l2.254-.423c.282,0,.423.141.563.423l1.127,3.522,1.268.141v1.409a11.513,11.513,0,0,0-3.8.141v.845a9.778,9.778,0,0,0-4.789,3.1c-.141.141-.141.282-.282.282l-.7-.423a11.231,11.231,0,0,0-1.127,2.254c-1.972,5.212,5.916,12.819,5.916,12.819s9.3,0,11.833-3.8l.845,1.268Z" transform="translate(-265.21 -68.354)"/><path class="a" d="M310.531,388.8a11.132,11.132,0,0,1,6.48,14.087,12.882,12.882,0,0,1-.986,1.972l-.423-.423.845-1.69A10.273,10.273,0,0,0,310.39,389.5a7.428,7.428,0,0,0-1.69-.423l.141-.563a2.424,2.424,0,0,1,1.69.282Z" transform="translate(-260.183 -66.899)"/><path class="c" d="M313.534,396.844l-4.367-1.972L304.8,392.9v8.029l4.367-1.972Z" transform="translate(-261.777 -65.085)"/></g></svg>