<svg xmlns="http://www.w3.org/2000/svg" width="38.338" height="38.338" viewBox="0 0 38.338 38.338">
  <g id="Group_253" data-name="Group 253" transform="translate(0.25 0.25)">
    <g id="stopwatch-3">
      <path id="Path_18" data-name="Path 18" d="M37.838,18.919A18.919,18.919,0,1,0,5.82,32.551l-.02.016.562.5A18.918,18.918,0,0,0,10.7,35.959c.065.032.132.06.2.091.2.092.392.183.592.268.123.052.248.1.372.151.144.058.289.117.435.172s.3.108.452.16c.124.043.248.086.373.127.163.052.327.1.492.149.117.034.235.069.353.1.169.046.339.089.509.13q.178.043.357.083c.169.037.338.073.509.105.127.025.255.047.383.069.163.028.327.056.491.079.144.021.289.038.435.056s.3.037.452.052c.179.017.359.029.539.041.12.008.24.019.362.025q.457.023.917.023t.916-.023c.122-.006.243-.017.365-.025.177-.012.355-.023.531-.04.155-.014.307-.034.46-.052s.281-.033.421-.054c.17-.025.338-.052.506-.081.12-.021.241-.042.361-.065q.267-.051.531-.11.164-.036.326-.075c.181-.044.361-.089.54-.137q.155-.043.31-.088c.179-.052.358-.1.534-.162.105-.034.209-.071.313-.106.171-.059.342-.117.511-.18.119-.045.236-.093.354-.139.151-.061.3-.119.452-.183.168-.072.333-.149.5-.226.1-.045.194-.086.289-.132a18.932,18.932,0,0,0,4.3-2.859L32,32.6l-.02-.016A18.867,18.867,0,0,0,37.838,18.919Zm-36.577,0a17.658,17.658,0,1,1,29.71,12.889,20.033,20.033,0,0,0-24.138-.033A17.608,17.608,0,0,1,1.261,18.919ZM29.819,32.8c-.288.226-.58.444-.879.651-.079.055-.158.11-.238.164-.336.224-.679.434-1.028.633-.077.044-.153.09-.23.132-.376.208-.761.4-1.151.581l-.2.092c-.411.183-.827.353-1.25.5l-.094.032a17.649,17.649,0,0,1-2.733.716l-.164.03q-.663.112-1.337.172l-.214.016c-.457.036-.917.059-1.379.059s-.926-.023-1.385-.059l-.215-.016q-.673-.061-1.335-.173L15.8,36.3c-.459-.082-.914-.178-1.364-.3l-.008,0c-.456-.12-.906-.261-1.351-.417l-.112-.038c-.417-.149-.827-.317-1.231-.5l-.23-.1q-.572-.265-1.126-.571c-.089-.049-.176-.1-.264-.152-.353-.2-.7-.416-1.041-.645-.082-.055-.161-.114-.242-.17-.292-.2-.577-.417-.858-.639-.062-.049-.125-.1-.187-.147a18.844,18.844,0,0,1,22.218.028C29.947,32.7,29.883,32.746,29.819,32.8Z" fill="#202a44" stroke="#141b2c" stroke-linecap="round" stroke-linejoin="bevel" stroke-width="0.5"/>
      <path id="Path_19" data-name="Path 19" d="M29.631,6.523a.63.63,0,0,0,.631-.631V4.631a.631.631,0,1,0-1.261,0V5.892A.63.63,0,0,0,29.631,6.523Z" transform="translate(-10.711 -1.477)" fill="#202a44" stroke="#141b2c" stroke-linecap="round" stroke-linejoin="bevel" stroke-width="0.5"/>
      <path id="Path_20" data-name="Path 20" d="M52.5,29.631a.63.63,0,0,0,.631.631h1.261a.631.631,0,0,0,0-1.261H53.131A.63.63,0,0,0,52.5,29.631Z" transform="translate(-19.391 -10.711)" fill="#202a44" stroke="#141b2c" stroke-linecap="round" stroke-linejoin="bevel" stroke-width="0.5"/>
      <path id="Path_21" data-name="Path 21" d="M6.023,29.631A.63.63,0,0,0,5.392,29H4.131a.631.631,0,1,0,0,1.261H5.392A.63.63,0,0,0,6.023,29.631Z" transform="translate(-1.293 -10.711)" fill="#202a44" stroke="#141b2c" stroke-linecap="round" stroke-linejoin="bevel" stroke-width="0.5"/>
      <path id="Path_22" data-name="Path 22" d="M41.065,9.686a.631.631,0,0,0,.861-.231l.631-1.092a.631.631,0,1,0-1.092-.631l-.631,1.092A.63.63,0,0,0,41.065,9.686Z" transform="translate(-15.051 -2.739)" fill="#202a44" stroke="#141b2c" stroke-linecap="round" stroke-linejoin="bevel" stroke-width="0.5"/>
      <path id="Path_23" data-name="Path 23" d="M51.39,41.965,50.3,41.334a.631.631,0,1,0-.631,1.092l1.092.631a.631.631,0,1,0,.631-1.092Z" transform="translate(-18.229 -15.236)" fill="#202a44" stroke="#141b2c" stroke-linecap="round" stroke-linejoin="bevel" stroke-width="0.5"/>
      <path id="Path_24" data-name="Path 24" d="M7.231,17.927l1.092.631a.631.631,0,1,0,.631-1.092l-1.092-.631a.631.631,0,1,0-.631,1.092Z" transform="translate(-2.554 -6.187)" fill="#202a44" stroke="#141b2c" stroke-linecap="round" stroke-linejoin="bevel" stroke-width="0.5"/>
      <path id="Path_25" data-name="Path 25" d="M16.96,9.421a.631.631,0,1,0,1.092-.631L17.422,7.7a.631.631,0,1,0-1.092.631Z" transform="translate(-6 -2.727)" fill="#202a44" stroke="#141b2c" stroke-linecap="round" stroke-linejoin="bevel" stroke-width="0.5"/>
      <path id="Path_26" data-name="Path 26" d="M49.729,18.175a.626.626,0,0,0,.315-.085l1.092-.631a.631.631,0,1,0-.631-1.092L49.413,17a.631.631,0,0,0,.316,1.177Z" transform="translate(-18.135 -6.014)" fill="#202a44" stroke="#141b2c" stroke-linecap="round" stroke-linejoin="bevel" stroke-width="0.5"/>
      <path id="Path_27" data-name="Path 27" d="M8.931,41.1a.63.63,0,0,0-.861-.231L6.978,41.5a.631.631,0,1,0,.631,1.092L8.7,41.96A.631.631,0,0,0,8.931,41.1Z" transform="translate(-2.461 -15.063)" fill="#202a44" stroke="#141b2c" stroke-linecap="round" stroke-linejoin="bevel" stroke-width="0.5"/>
      <path id="Path_28" data-name="Path 28" d="M28.523,26.969A2.5,2.5,0,0,0,30.758,23.3L36.1,17.955a.631.631,0,0,0-.892-.892l-5.289,5.289a2.6,2.6,0,0,0-3.183.31,2.522,2.522,0,0,0,1.783,4.306Zm-.892-3.414a1.261,1.261,0,1,1,1.783,1.783,1.291,1.291,0,0,1-1.783,0,1.261,1.261,0,0,1,0-1.783Z" transform="translate(-9.603 -6.234)" fill="#202a44" stroke="#141b2c" stroke-linecap="round" stroke-linejoin="bevel" stroke-width="0.5"/>
    </g>
  </g>
</svg>
