<svg xmlns="http://www.w3.org/2000/svg" width="29.693" height="17.685" viewBox="0 0 29.693 17.685"><defs><style>.a{fill:#002a6e;}</style></defs><g transform="translate(-17.613 -220.375)"><g transform="translate(0 40)"><g transform="translate(17.613 180.375)"><g transform="translate(0 0)"><path class="a" d="M314.131,105.122a.429.429,0,0,0,.4.759,3.822,3.822,0,1,1-1.158.943.429.429,0,1,0-.661-.548,4.682,4.682,0,1,0,1.417-1.154Zm0,0" transform="translate(-293.419 -98.365)"/><path class="a" d="M41.532,113.94a4.681,4.681,0,1,0-4.681-4.681A4.686,4.686,0,0,0,41.532,113.94Zm0-8.5a3.822,3.822,0,1,1-3.822,3.822A3.826,3.826,0,0,1,41.532,105.437Zm0,0" transform="translate(-34.742 -98.365)"/><path class="a" d="M231.886,40.277a1.464,1.464,0,1,0-1.464-1.464A1.466,1.466,0,0,0,231.886,40.277Zm0-2.07a.606.606,0,1,1-.606.606A.606.606,0,0,1,231.886,38.206Zm0,0" transform="translate(-217.04 -35.209)"/><path class="a" d="M6.878,17.685c3.211,0,4.354-.616,5.362-1.159a4.616,4.616,0,0,1,2.606-.7,4.616,4.616,0,0,1,2.606.7c1.009.543,2.151,1.159,5.362,1.159a6.878,6.878,0,1,0,0-13.757c-1.225,0-1.893-.673-2.738-1.524A6.619,6.619,0,0,0,14.847,0a6.619,6.619,0,0,0-5.23,2.4C8.771,3.255,8.1,3.928,6.878,3.928A6.849,6.849,0,0,0,3.1,5.06a.435.435,0,1,0,.479.726A6.015,6.015,0,1,1,2.37,6.835a.435.435,0,0,0-.652-.575A6.878,6.878,0,0,0,6.878,17.685Zm21.945-6.878a6.008,6.008,0,1,1-12.017,0A6.1,6.1,0,0,1,22.815,4.8,6.015,6.015,0,0,1,28.823,10.806ZM8.854,4.217a8.386,8.386,0,0,0,1.379-1.2A5.738,5.738,0,0,1,14.847.87a5.738,5.738,0,0,1,4.613,2.147,8.4,8.4,0,0,0,1.379,1.2l-.022.007a6.875,6.875,0,0,0-3.608,10.564,6.747,6.747,0,0,0,.966,1.091l.118.106c-.15-.075-.29-.151-.428-.225a5.458,5.458,0,0,0-3.018-.8,5.458,5.458,0,0,0-3.018.8c-.138.074-.279.15-.428.225a6.867,6.867,0,0,0,.811-9.518l-.016-.02a6.955,6.955,0,0,0-3.32-2.224Zm0,0" transform="translate(0)"/></g></g></g></g></svg>