<svg xmlns="http://www.w3.org/2000/svg" xmlns:xlink="http://www.w3.org/1999/xlink" width="16" height="12" viewBox="0 0 16 12"><defs><style>.a{clip-path:url(#a);}</style><clipPath id="a"><path d="M1,0A1,1,0,0,0,1,2h9a1,1,0,0,0,0-2ZM1,5A1,1,0,0,0,1,7H15a1,1,0,0,0,0-2Zm0,5a1,1,0,0,0,0,2H15a1,1,0,0,0,0-2Z" transform="translate(16 12) rotate(180)"/></clipPath></defs><path d="M1,0A1,1,0,0,0,1,2h9a1,1,0,0,0,0-2ZM1,5A1,1,0,0,0,1,7H15a1,1,0,0,0,0-2Zm0,5a1,1,0,0,0,0,2H15a1,1,0,0,0,0-2Z" transform="translate(16 12) rotate(180)"/><g class="a"><g transform="translate(-3 -5)"><rect width="22" height="22"/></g></g></svg>