<svg xmlns="http://www.w3.org/2000/svg" width="25" height="28.443" viewBox="0 0 25 28.443"><path d="M38.718,23.422A11.561,11.561,0,0,1,35.087,15V10.346a7.525,7.525,0,0,0-4.411-6.835,10.4,10.4,0,0,0-1.807-.629v-.3a2.586,2.586,0,1,0-5.171,0v.342a10.248,10.248,0,0,0-1.627.589,7.824,7.824,0,0,0-4.579,6.827V15a11.474,11.474,0,0,1-3.468,8.425.517.517,0,0,0,.277.877l4.908.848c.914.158,1.756.287,2.557.394a5.113,5.113,0,0,0,9.223,0c.8-.106,1.636-.235,2.545-.392l4.908-.848a.517.517,0,0,0,.277-.876ZM24.731,2.586a1.551,1.551,0,1,1,3.1,0V2.68a10.279,10.279,0,0,0-3.1.024Zm1.646,24.823a4.145,4.145,0,0,1-3.318-1.714,32.042,32.042,0,0,0,3.313.179,31.851,31.851,0,0,0,3.325-.181A4.146,4.146,0,0,1,26.377,27.409Zm6.981-3.282c-.992.171-1.9.31-2.762.42h0c-.379.048-.747.09-1.107.126h-.011c-.33.033-.652.059-.97.083l-.181.012c-.276.018-.549.033-.821.043l-.168.007c-.643.022-1.278.022-1.921,0l-.172-.007q-.4-.015-.81-.042l-.193-.013c-.31-.022-.624-.049-.945-.08l-.033,0c-.358-.036-.723-.078-1.1-.125h0c-.863-.109-1.775-.249-2.772-.421l-3.962-.685A12.447,12.447,0,0,0,18.525,15V10.346A6.771,6.771,0,0,1,22.5,4.455a9.238,9.238,0,0,1,1.808-.612l.016,0a9.4,9.4,0,0,1,3.92-.035c.007,0,.013,0,.02,0a9.35,9.35,0,0,1,1.978.646,6.565,6.565,0,0,1,3.807,5.891V15a12.583,12.583,0,0,0,3.265,8.446l-3.959.683Z" transform="translate(-13.871 0)"/></svg>