<svg xmlns="http://www.w3.org/2000/svg" width="32.597" height="32.597" viewBox="0 0 32.597 32.597"><defs><style>.a{fill:none;}.b,.c{stroke:none;}.c{fill:#002a6e;}</style></defs><g transform="translate(-17.426 -233.425)"><g class="a" transform="translate(16.426 232.425)"><path class="b" d="M17.3,17.3a8.149,8.149,0,0,1,16.3,0Zm0,0a8.222,8.222,0,0,1-8.149,8.149A8.222,8.222,0,0,1,1,17.3Zm0,0A8.222,8.222,0,0,1,9.149,9.149,8.222,8.222,0,0,1,17.3,1Zm0,0a8.149,8.149,0,0,1,0,16.3Z"/><path class="c" d="M 16.29834175109863 2.071403503417969 C 14.78921127319336 2.288528442382813 13.38361740112305 2.995197296142578 12.26399230957031 4.114822387695313 C 10.90023231506348 5.478582382202148 10.14917182922363 7.266481399536133 10.14917182922363 9.149171829223633 C 10.14917182922363 11.03186225891113 10.90023231506348 12.81976127624512 12.26399230957031 14.18352127075195 C 13.38361740112305 15.30314636230469 14.78921127319336 16.00981521606445 16.29834175109863 16.22694206237793 L 16.29834175109863 2.071403503417969 M 25.44751167297363 10.14917182922363 C 23.56482315063477 10.14917182922363 21.77692222595215 10.90023231506348 20.41316223144531 12.26399230957031 C 19.29353713989258 13.38361740112305 18.58686828613281 14.78921127319336 18.36974143981934 16.29834175109863 L 32.5252799987793 16.29834175109863 C 32.30815505981445 14.78921127319336 31.60148620605469 13.38361740112305 30.48186111450195 12.26399230957031 C 29.11810111999512 10.90023231506348 27.33020210266113 10.14917182922363 25.44751167297363 10.14917182922363 M 2.071403503417969 18.29834175109863 C 2.288528442382813 19.80747222900391 2.995197296142578 21.21306610107422 4.114822387695313 22.33269119262695 C 5.478582382202148 23.69645309448242 7.266481399536133 24.44751167297363 9.149171829223633 24.44751167297363 C 11.03186225891113 24.44751167297363 12.81976127624512 23.69645309448242 14.18352127075195 22.33269119262695 C 15.30314636230469 21.21306610107422 16.00981521606445 19.80747222900391 16.22694206237793 18.29834175109863 L 2.071403503417969 18.29834175109863 M 18.29834175109863 18.36974143981934 L 18.29834175109863 32.5252799987793 C 19.80747222900391 32.30815505981445 21.21306610107422 31.60148620605469 22.33269119262695 30.48186111450195 C 23.69645309448242 29.11810111999512 24.44751167297363 27.33020210266113 24.44751167297363 25.44751167297363 C 24.44751167297363 23.56482315063477 23.69645309448242 21.77692222595215 22.33269119262695 20.41316223144531 C 21.21306610107422 19.29353713989258 19.80747222900391 18.58686828613281 18.29834175109863 18.36974143981934 M 17.29834175109863 1 L 17.29834175109863 17.29834175109863 C 12.85334205627441 17.29834175109863 9.149171829223633 13.59417152404785 9.149171829223633 9.149171829223633 C 9.149171829223633 4.704172134399414 12.85334205627441 1 17.29834175109863 1 Z M 25.44751167297363 9.149171829223633 C 29.89251136779785 9.149171829223633 33.59668350219727 12.85334205627441 33.59668350219727 17.29834175109863 L 17.29834175109863 17.29834175109863 C 17.29834175109863 12.85334205627441 21.00251197814941 9.149171829223633 25.44751167297363 9.149171829223633 Z M 1 17.29834175109863 L 17.29834175109863 17.29834175109863 C 17.29834175109863 21.74334144592285 13.59417152404785 25.44751167297363 9.149171829223633 25.44751167297363 C 4.704172134399414 25.44751167297363 1 21.74334144592285 1 17.29834175109863 Z M 17.29834175109863 17.29834175109863 C 21.74334144592285 17.29834175109863 25.44751167297363 21.00251197814941 25.44751167297363 25.44751167297363 C 25.44751167297363 29.89251136779785 21.74334144592285 33.59668350219727 17.29834175109863 33.59668350219727 L 17.29834175109863 17.29834175109863 Z"/></g></g></svg>