<svg xmlns="http://www.w3.org/2000/svg" width="29.979" height="39.397" viewBox="0 0 29.979 39.397"><defs><style>.a{fill:none;stroke:#002a6e;stroke-linecap:round;stroke-linejoin:round;}</style></defs><g transform="translate(0.5 0.5)"><path class="a" d="M445.984,488.989a14.489,14.489,0,1,0-21.01,12.927V504.2a1.449,1.449,0,0,0,1.449,1.449h10.143a1.449,1.449,0,0,0,1.449-1.449v-2.287A14.476,14.476,0,0,0,445.984,488.989Z" transform="translate(-417.005 -474.5)"/><path class="a" d="M440.148,517.5v2.173a1.449,1.449,0,0,1-1.449,1.449h-7.245a1.449,1.449,0,0,1-1.449-1.449V517.5Z" transform="translate(-420.587 -486.348)"/><path class="a" d="M439.25,522.5a3.622,3.622,0,0,1-7.245,0Z" transform="translate(-421.138 -487.725)"/><g transform="translate(5.796 6.15)"><path class="a" d="M433.7,497.478a2.162,2.162,0,0,1-2.82,2.076,8.7,8.7,0,0,1,0-16.453,2.162,2.162,0,0,1,2.82,2.076Z" transform="translate(-425.005 -482.989)"/><path class="a" d="M435.889,498.92a.036.036,0,0,1-.036-.036,2.865,2.865,0,0,0-2.862-2.862.036.036,0,1,1,0-.072,2.938,2.938,0,0,1,2.934,2.934A.036.036,0,0,1,435.889,498.92Z" transform="translate(-427.195 -486.56)"/><path class="a" d="M435.889,492.8a.036.036,0,0,1-.036-.036,2.865,2.865,0,0,0-2.862-2.862.036.036,0,1,1,0-.072,2.938,2.938,0,0,1,2.934,2.934A.036.036,0,0,1,435.889,492.8Z" transform="translate(-427.195 -484.873)"/><path class="a" d="M428.491,494.573a.036.036,0,0,1-.036-.036,2.212,2.212,0,0,1,2.21-2.21.036.036,0,1,1,0,.072,2.14,2.14,0,0,0-2.137,2.137A.036.036,0,0,1,428.491,494.573Z" transform="translate(-425.956 -485.562)"/><path class="a" d="M431.63,500.7a.036.036,0,0,1-.025-.011,1.575,1.575,0,0,1,0-2.224.036.036,0,0,1,.051,0,.036.036,0,0,1,0,.051,1.5,1.5,0,0,0,0,2.123.036.036,0,0,1,0,.051A.037.037,0,0,1,431.63,500.7Z" transform="translate(-426.697 -487.249)"/><g transform="translate(8.657)"><path class="a" d="M437.005,497.478a2.161,2.161,0,0,0,2.819,2.076,8.7,8.7,0,0,0,0-16.453,2.161,2.161,0,0,0-2.819,2.076Z" transform="translate(-436.969 -482.989)"/><path class="a" d="M436.991,496.92a.036.036,0,0,1-.036-.036,2.938,2.938,0,0,1,2.934-2.934.036.036,0,0,1,0,.072,2.865,2.865,0,0,0-2.862,2.862A.036.036,0,0,1,436.991,496.92Z" transform="translate(-436.955 -486.009)"/><path class="a" d="M436.991,490.8a.036.036,0,0,1-.036-.036,2.938,2.938,0,0,1,2.934-2.934.036.036,0,0,1,0,.072,2.865,2.865,0,0,0-2.862,2.862A.036.036,0,0,1,436.991,490.8Z" transform="translate(-436.955 -484.322)"/><path class="a" d="M444.665,492.573a.036.036,0,0,1-.036-.036,2.14,2.14,0,0,0-2.137-2.137.036.036,0,1,1,0-.072,2.212,2.212,0,0,1,2.21,2.21A.036.036,0,0,1,444.665,492.573Z" transform="translate(-438.47 -485.011)"/><path class="a" d="M441.171,500.458c-.05,0-.1,0-.151-.007a.035.035,0,0,1-.033-.039c0-.02.022-.03.04-.033.048,0,.1.007.144.007a1.5,1.5,0,0,0,1.493-1.358A.036.036,0,0,1,442.7,499h0a.035.035,0,0,1,.032.039A1.575,1.575,0,0,1,441.171,500.458Z" transform="translate(-438.066 -487.4)"/></g></g></g></svg>