<svg xmlns="http://www.w3.org/2000/svg" width="20.333" height="15.779" viewBox="0 0 20.333 15.779"><defs><style>.a{fill:#275daf;}</style></defs><path class="a" d="M20.041,10.272h-.018a.406.406,0,0,1-.409-.441v-2.2a.425.425,0,0,0-.424-.425H12.9a2.817,2.817,0,0,0-2.313.768l-.04.056h0l-.124.171h0c-.167.229-.312.132-.382.057l-.238-.3L9.683,7.82a2.305,2.305,0,0,0-1.736-.614h-6.7a.425.425,0,0,0-.425.425V9.8c0,.38-.207.457-.333.469H.394c-.1.006-.343.066-.343.508V21.131a.46.46,0,0,0,.46.46H6.626a3.956,3.956,0,0,1,3.056,1.018l.145.18h0a.519.519,0,0,0,.8,0h0l.085-.1h0l.109-.127s.029-.033.067-.072a3.781,3.781,0,0,1,2.73-.9h6.3a.459.459,0,0,0,.46-.46V10.68C20.384,10.305,20.114,10.274,20.041,10.272Zm-1.374,9.235a.375.375,0,0,1-.382.368H13.1a3.217,3.217,0,0,0-2.515.834l-.085.114-.04.055h0c-.176.239-.435,0-.436,0L9.9,20.73A3.057,3.057,0,0,0,7.5,19.875H2.151a.375.375,0,0,1-.382-.368V8.477a.375.375,0,0,1,.382-.368H6.3c3.087,0,3.38,1.754,3.4,2.263v7.671c0,.558.266.662.416.677h.223c.153-.015.4-.106.4-.541V10.272h0a2.03,2.03,0,0,1,2.129-2.165h5.423a.375.375,0,0,1,.382.368Z" transform="translate(-0.051 -7.206)"/></svg>