<svg xmlns="http://www.w3.org/2000/svg" width="25.68" height="21.611" viewBox="0 0 25.68 21.611">
  <g id="Group_284" data-name="Group 284" transform="translate(-1003 -222)">
    <g id="multiple-users-silhouette_1_" data-name="multiple-users-silhouette (1)" transform="translate(1003 215.652)">
      <g id="Group_280" data-name="Group 280" transform="translate(0 6.348)">
        <path id="Path_41" data-name="Path 41" d="M15.5,10.057a4.666,4.666,0,0,1,2.172,3.467A3.765,3.765,0,1,0,15.5,10.057Zm-2.467,7.711A3.766,3.766,0,1,0,9.262,14,3.766,3.766,0,0,0,13.029,17.769Zm1.6.257h-3.2a4.828,4.828,0,0,0-4.822,4.823v3.908l.01.061.269.084a21.951,21.951,0,0,0,6.557,1.057,13.461,13.461,0,0,0,5.725-1.075l.252-.127h.027V22.848A4.827,4.827,0,0,0,14.627,18.025Zm6.231-3.888H17.687a4.642,4.642,0,0,1-1.433,3.233,5.73,5.73,0,0,1,4.093,5.483v1.2A12.977,12.977,0,0,0,25.4,23l.252-.128h.027v-3.91A4.828,4.828,0,0,0,20.858,14.137ZM6.421,13.881a3.741,3.741,0,0,0,2-.581,4.661,4.661,0,0,1,1.752-2.973c0-.071.011-.14.011-.212a3.766,3.766,0,1,0-3.766,3.766ZM9.8,17.37a4.644,4.644,0,0,1-1.432-3.215c-.118-.009-.234-.018-.354-.018h-3.2A4.828,4.828,0,0,0,0,18.959v3.909l.01.06.269.085A22.61,22.61,0,0,0,5.71,24.034v-1.18A5.731,5.731,0,0,1,9.8,17.37Z" transform="translate(0 -6.348)" fill="#3e3e3e"/>
      </g>
    </g>
  </g>
</svg>
