<svg xmlns="http://www.w3.org/2000/svg" xmlns:xlink="http://www.w3.org/1999/xlink" width="33.785" height="22.749" viewBox="0 0 33.785 22.749">
  <defs>
    <clipPath id="clip-path">
      <path id="Icon" d="M3.923,17.062A21.48,21.48,0,0,1,0,11.375,21.339,21.339,0,0,1,3.923,5.687a17.636,17.636,0,0,1,25.943,0,21.426,21.426,0,0,1,3.92,5.687,21.367,21.367,0,0,1-3.92,5.687,17.636,17.636,0,0,1-25.943,0Zm4.523-5.687c0,4.181,3.791,7.582,8.448,7.582s8.446-3.4,8.446-7.582-3.788-7.582-8.446-7.582S8.446,7.193,8.446,11.375Zm4.224,0a4.026,4.026,0,0,1,4.224-3.792,4.025,4.025,0,0,1,4.222,3.792,4.025,4.025,0,0,1-4.222,3.792A4.026,4.026,0,0,1,12.67,11.375Z" fill="#141b2c"/>
    </clipPath>
  </defs>
  <g id="Group_337" data-name="Group 337" transform="translate(-1262 -239)">
    <g id="Icon_VisibilityOn" data-name="Icon/VisibilityOn" transform="translate(1262 239)">
      <path id="Icon-2" data-name="Icon" d="M3.923,17.062A21.48,21.48,0,0,1,0,11.375,21.339,21.339,0,0,1,3.923,5.687a17.636,17.636,0,0,1,25.943,0,21.426,21.426,0,0,1,3.92,5.687,21.367,21.367,0,0,1-3.92,5.687,17.636,17.636,0,0,1-25.943,0Zm4.523-5.687c0,4.181,3.791,7.582,8.448,7.582s8.446-3.4,8.446-7.582-3.788-7.582-8.446-7.582S8.446,7.193,8.446,11.375Zm4.224,0a4.026,4.026,0,0,1,4.224-3.792,4.025,4.025,0,0,1,4.222,3.792,4.025,4.025,0,0,1-4.222,3.792A4.026,4.026,0,0,1,12.67,11.375Z" fill="#141b2c"/>
    </g>
  </g>
</svg>
