<svg xmlns="http://www.w3.org/2000/svg" width="18.999" height="18.572" viewBox="0 0 18.999 18.572"><defs><style>.a{fill:#3e3e3e;}</style></defs><g transform="translate(-9.833 -11.051)"><path class="a" d="M26.159,29.623,28.4,27.377,17.527,16.5a3.982,3.982,0,0,0-3.707-5.448h-.009a.427.427,0,0,0-.1.012.393.393,0,0,0-.3.383.44.44,0,0,0,.031.16.66.66,0,0,0,.084.147,2.237,2.237,0,0,0,.188.215c.128.132.292.284.469.442.394.352.851.732,1.061.9l.239,1.97-1.421,1.427L12.1,16.468c-.136-.165-.4-.481-.674-.8-.2-.23-.406-.46-.581-.64-.089-.09-.169-.167-.245-.231a1.059,1.059,0,0,0-.122-.09.584.584,0,0,0-.087-.043.426.426,0,0,0-.16-.032.4.4,0,0,0-.16.033.386.386,0,0,0-.123.085.394.394,0,0,0-.1.165.427.427,0,0,0-.018.121,3.981,3.981,0,0,0,5.448,3.708Z"/><path class="a" d="M22.618,22l1.743-1.743L23.7,19.6l6.062-6.062,1.257-1.8-.469-.468-1.8,1.258L22.7,18.591l-.656-.656L20.3,19.678l-2.344,1.128-5.464,5.464L16.026,29.8,21.49,24.34Z" transform="translate(-2.193 -0.181)"/></g></svg>