<svg xmlns="http://www.w3.org/2000/svg" width="22" height="22" viewBox="0 0 22 22">
  <g id="Group_6147" data-name="Group 6147" transform="translate(-5172.289 795)">
    <g id="Group_5864" data-name="Group 5864" transform="translate(5167.449 -1752.405)">
      <path id="Path_2755" data-name="Path 2755" d="M7.807,957.4a2.2,2.2,0,0,0-2.2,2.2V971.82a.732.732,0,1,0,1.464,0V959.6a.8.8,0,0,1,.732-.733H24.644a.8.8,0,0,1,.732.733v16.859a.8.8,0,0,1-.732.733h-12.2a.733.733,0,1,0,0,1.466h12.2a2.2,2.2,0,0,0,2.2-2.2V959.6a2.2,2.2,0,0,0-2.2-2.2Zm8.052,4.642a2.932,2.932,0,1,0,2.928,2.932A2.941,2.941,0,0,0,15.859,962.047Zm0,1.466a1.466,1.466,0,1,1-1.464,1.466A1.454,1.454,0,0,1,15.859,963.513ZM14.151,968.4A3.928,3.928,0,0,0,10,972.065v1.466a.761.761,0,0,0,.732.733H20.983a.761.761,0,0,0,.732-.733v-1.466a3.928,3.928,0,0,0-4.148-3.665Zm0,1.466h3.416a2.465,2.465,0,0,1,2.684,2.2v.733H11.467v-.733a2.465,2.465,0,0,1,2.684-2.2Zm-6.108,3.161a.762.762,0,0,0-.724.748v1.71H5.535a.734.734,0,0,0,.076,1.466H7.319v1.71a.732.732,0,1,0,1.464,0v-1.71h1.708a.733.733,0,1,0,0-1.466H8.783v-1.71A.762.762,0,0,0,8.043,973.027Z" transform="translate(0)" fill="#3e3e3e"/>
    </g>
  </g>
</svg>
