<svg xmlns="http://www.w3.org/2000/svg" width="19.859" height="19.859" viewBox="0 0 19.859 19.859"><g transform="translate(-2 -2)"><g transform="translate(2 2)"><path d="M11.929,2a9.929,9.929,0,1,0,9.929,9.929A9.937,9.937,0,0,0,11.929,2Zm0,18.2A8.274,8.274,0,1,1,20.2,11.929,8.277,8.277,0,0,1,11.929,20.2Z" transform="translate(-2 -2)"/><path d="M8.327,6.85a.819.819,0,0,0-.827.827V13.3a.827.827,0,0,0,1.655,0V7.677A.83.83,0,0,0,8.327,6.85Z" transform="translate(1.602 1.176)"/><path d="M8.344,4.8a.885.885,0,0,0-.844.861v.132a.8.8,0,0,0,.811.794h.017a.864.864,0,0,0,.827-.827V5.578A.756.756,0,0,0,8.344,4.8Z" transform="translate(1.602 -0.167)"/></g></g></svg>