<svg xmlns="http://www.w3.org/2000/svg" width="58.34" height="58.34" viewBox="0 0 58.34 58.34">
  <g id="Group_253" data-name="Group 253" transform="translate(0.25 0.25)">
    <g id="stopwatch-3">
      <path id="Path_18" data-name="Path 18" d="M57.84,28.92A28.92,28.92,0,1,0,8.9,49.757l-.031.024.859.763a28.919,28.919,0,0,0,6.633,4.422c.1.048.2.092.3.139.3.141.6.28.9.41.188.08.379.154.569.231.221.089.442.179.664.262s.46.165.69.245c.19.066.38.132.571.194.249.08.5.155.752.228.179.052.359.105.54.153.258.07.518.136.778.2q.272.065.546.126c.258.057.517.112.778.161.195.038.389.071.585.105.25.042.5.085.751.12.221.032.442.058.664.085s.459.057.69.079c.274.026.549.044.823.063.184.013.367.029.553.038q.7.035,1.4.036t1.4-.036c.187-.009.372-.026.558-.039.271-.018.543-.036.812-.062.236-.022.469-.052.7-.08.215-.026.43-.051.644-.082.259-.038.517-.08.773-.124.184-.032.368-.064.552-.1q.408-.078.812-.168.25-.055.5-.115c.277-.067.552-.136.825-.21q.237-.065.473-.135c.274-.08.547-.16.817-.248.161-.052.32-.108.479-.162.261-.09.522-.179.781-.276.181-.068.361-.142.541-.213.231-.093.463-.182.691-.28.256-.11.509-.228.763-.345.147-.068.3-.132.442-.2a28.94,28.94,0,0,0,6.573-4.37l.861-.76-.03-.024A28.84,28.84,0,0,0,57.84,28.92Zm-55.912,0a26.992,26.992,0,1,1,45.414,19.7,30.622,30.622,0,0,0-36.9-.05A26.916,26.916,0,0,1,1.928,28.92ZM45.582,50.132c-.44.345-.886.679-1.344.995-.121.084-.242.169-.364.251-.513.342-1.038.663-1.571.968-.118.067-.233.137-.352.2-.576.318-1.164.614-1.759.888l-.309.141c-.628.28-1.264.539-1.911.769-.047.017-.1.032-.144.048a26.978,26.978,0,0,1-4.178,1.094l-.251.045q-1.014.171-2.044.263c-.109.01-.218.016-.327.025-.7.055-1.4.091-2.108.091s-1.415-.036-2.117-.091c-.11-.009-.22-.015-.329-.025q-1.028-.093-2.041-.264c-.093-.015-.183-.033-.276-.049-.7-.125-1.4-.273-2.085-.453l-.012,0c-.7-.183-1.385-.4-2.065-.637l-.171-.058c-.637-.228-1.264-.485-1.882-.761-.118-.052-.235-.105-.352-.159q-.875-.4-1.722-.873c-.136-.075-.269-.154-.4-.232-.54-.311-1.072-.636-1.591-.985-.125-.084-.246-.174-.369-.26-.446-.31-.882-.637-1.311-.977-.1-.075-.192-.148-.286-.225a28.806,28.806,0,0,1,33.963.043C45.777,49.981,45.679,50.056,45.582,50.132Z" fill="#fff" stroke="#fff" stroke-linecap="round" stroke-linejoin="bevel" stroke-width="0.5"/>
      <path id="Path_19" data-name="Path 19" d="M29.964,7.856a.963.963,0,0,0,.964-.964V4.964a.964.964,0,1,0-1.928,0V6.892A.963.963,0,0,0,29.964,7.856Z" transform="translate(-1.044 -0.144)" fill="#fff" stroke="#fff" stroke-linecap="round" stroke-linejoin="bevel" stroke-width="0.5"/>
      <path id="Path_20" data-name="Path 20" d="M52.5,29.964a.963.963,0,0,0,.964.964h1.928a.964.964,0,0,0,0-1.928H53.464A.963.963,0,0,0,52.5,29.964Z" transform="translate(-1.89 -1.044)" fill="#fff" stroke="#fff" stroke-linecap="round" stroke-linejoin="bevel" stroke-width="0.5"/>
      <path id="Path_21" data-name="Path 21" d="M7.356,29.964A.963.963,0,0,0,6.392,29H4.464a.964.964,0,1,0,0,1.928H6.392A.963.963,0,0,0,7.356,29.964Z" transform="translate(-0.126 -1.044)" fill="#fff" stroke="#fff" stroke-linecap="round" stroke-linejoin="bevel" stroke-width="0.5"/>
      <path id="Path_22" data-name="Path 22" d="M41.232,10.885a.964.964,0,0,0,1.317-.353l.964-1.67a.964.964,0,0,0-1.67-.964l-.964,1.67A.963.963,0,0,0,41.232,10.885Z" transform="translate(-1.467 -0.267)" fill="#fff" stroke="#fff" stroke-linecap="round" stroke-linejoin="bevel" stroke-width="0.5"/>
      <path id="Path_23" data-name="Path 23" d="M52.468,42.343l-1.67-.964a.964.964,0,1,0-.964,1.67l1.67.964a.964.964,0,1,0,.964-1.67Z" transform="translate(-1.777 -1.485)" fill="#fff" stroke="#fff" stroke-linecap="round" stroke-linejoin="bevel" stroke-width="0.5"/>
      <path id="Path_24" data-name="Path 24" d="M7.4,18.549l1.67.964a.964.964,0,1,0,.964-1.67l-1.67-.964a.964.964,0,1,0-.964,1.67Z" transform="translate(-0.249 -0.603)" fill="#fff" stroke="#fff" stroke-linecap="round" stroke-linejoin="bevel" stroke-width="0.5"/>
      <path id="Path_25" data-name="Path 25" d="M17.338,10.5a.964.964,0,1,0,1.67-.964l-.964-1.67a.964.964,0,1,0-1.67.964Z" transform="translate(-0.585 -0.266)" fill="#fff" stroke="#fff" stroke-linecap="round" stroke-linejoin="bevel" stroke-width="0.5"/>
      <path id="Path_26" data-name="Path 26" d="M50.063,19.175a.956.956,0,0,0,.481-.129l1.669-.964a.964.964,0,1,0-.964-1.67l-1.669.964a.964.964,0,0,0,.483,1.8Z" transform="translate(-1.767 -0.586)" fill="#fff" stroke="#fff" stroke-linecap="round" stroke-linejoin="bevel" stroke-width="0.5"/>
      <path id="Path_27" data-name="Path 27" d="M10.13,41.265a.963.963,0,0,0-1.317-.353l-1.669.964a.964.964,0,1,0,.964,1.67l1.669-.964A.964.964,0,0,0,10.13,41.265Z" transform="translate(-0.24 -1.468)" fill="#fff" stroke="#fff" stroke-linecap="round" stroke-linejoin="bevel" stroke-width="0.5"/>
      <path id="Path_28" data-name="Path 28" d="M29.856,32.3A3.828,3.828,0,0,0,33.273,26.7l8.171-8.171a.964.964,0,1,0-1.363-1.363L32,25.247a3.966,3.966,0,0,0-4.865.474A3.856,3.856,0,0,0,29.856,32.3Zm-1.363-5.219a1.928,1.928,0,1,1,2.726,2.726,1.973,1.973,0,0,1-2.726,0,1.927,1.927,0,0,1,0-2.726Z" transform="translate(-0.936 -0.608)" fill="#fff" stroke="#fff" stroke-linecap="round" stroke-linejoin="bevel" stroke-width="0.5"/>
    </g>
  </g>
</svg>
