<svg xmlns="http://www.w3.org/2000/svg" width="31.39" height="36.841" viewBox="0 0 31.39 36.841">
  <g id="Group_250" data-name="Group 250" transform="translate(0.25 0.25)">
    <g id="A-Bookmark">
      <path id="Path_9" data-name="Path 9" d="M33.3,36h-21.2a.606.606,0,1,0,0,1.211H33.3A.606.606,0,1,0,33.3,36Z" transform="translate(-7.26 -14.195)" fill="#202a44" stroke="#141b2c" stroke-linecap="round" stroke-linejoin="bevel" stroke-width="0.5"/>
      <path id="Path_10" data-name="Path 10" d="M34.106,30.211H41.98a.606.606,0,0,0,0-1.211H34.106a.606.606,0,0,0,0,1.211Z" transform="translate(-15.935 -11.435)" fill="#202a44" stroke="#141b2c" stroke-linecap="round" stroke-linejoin="bevel" stroke-width="0.5"/>
      <path id="Path_11" data-name="Path 11" d="M34.106,23.211H41.98a.606.606,0,0,0,0-1.211H34.106a.606.606,0,0,0,0,1.211Z" transform="translate(-15.935 -8.675)" fill="#202a44" stroke="#141b2c" stroke-linecap="round" stroke-linejoin="bevel" stroke-width="0.5"/>
      <path id="Path_12" data-name="Path 12" d="M34.106,16.211H41.98a.606.606,0,0,0,0-1.211H34.106a.606.606,0,0,0,0,1.211Z" transform="translate(-15.935 -5.915)" fill="#202a44" stroke="#141b2c" stroke-linecap="round" stroke-linejoin="bevel" stroke-width="0.5"/>
      <path id="Path_13" data-name="Path 13" d="M33.3,48h-21.2a.606.606,0,1,0,0,1.211H33.3A.606.606,0,1,0,33.3,48Z" transform="translate(-7.26 -18.927)" fill="#202a44" stroke="#141b2c" stroke-linecap="round" stroke-linejoin="bevel" stroke-width="0.5"/>
      <path id="Path_14" data-name="Path 14" d="M12.106,43.211h8.48a.606.606,0,1,0,0-1.211h-8.48a.606.606,0,0,0,0,1.211Z" transform="translate(-7.26 -16.561)" fill="#202a44" stroke="#141b2c" stroke-linecap="round" stroke-linejoin="bevel" stroke-width="0.5"/>
      <path id="Path_15" data-name="Path 15" d="M41.98,42H34.106a.606.606,0,0,0,0,1.211H41.98a.606.606,0,0,0,0-1.211Z" transform="translate(-15.935 -16.561)" fill="#202a44" stroke="#141b2c" stroke-linecap="round" stroke-linejoin="bevel" stroke-width="0.5"/>
      <path id="Path_16" data-name="Path 16" d="M30.536,43.041a.637.637,0,0,0,.176-.43.609.609,0,0,0-.176-.424.606.606,0,1,0-.43,1.03A.637.637,0,0,0,30.536,43.041Z" transform="translate(-14.358 -16.567)" fill="#202a44" stroke="#141b2c" stroke-linecap="round" stroke-linejoin="bevel" stroke-width="0.5"/>
      <path id="Path_17" data-name="Path 17" d="M34.784,2.423H19.642V.606A.605.605,0,0,0,19.037,0H9.346A.605.605,0,0,0,8.74.606V2.423H5.106a.605.605,0,0,0-.606.606V35.736a.605.605,0,0,0,.606.606H34.784a.605.605,0,0,0,.606-.606V3.028A.605.605,0,0,0,34.784,2.423ZM9.951,3.028V1.211h8.48V16.354l-3.876-2.907a.6.6,0,0,0-.726,0L9.951,16.354Zm24.228,32.1H5.711V3.634H8.74V17.565a.605.605,0,0,0,.969.485l4.482-3.362,4.482,3.362a.607.607,0,0,0,.162.085.557.557,0,0,0,.063.015.642.642,0,0,0,.113.018c.009,0,.018,0,.027,0s.019-.007.03-.007a.6.6,0,0,0,.242-.057.607.607,0,0,0,.334-.542V3.634H34.179Z" transform="translate(-4.5)" fill="#202a44" stroke="#141b2c" stroke-linecap="round" stroke-linejoin="bevel" stroke-width="0.5"/>
    </g>
  </g>
</svg>
