<svg xmlns="http://www.w3.org/2000/svg" width="30.879" height="35.047" viewBox="0 0 30.879 35.047">
  <g id="Group_248" data-name="Group 248" transform="translate(0.257 0.25)">
    <g id="A-Notifications" transform="translate(0)">
      <path id="Path_1" data-name="Path 1" d="M44.051,28.449A14.041,14.041,0,0,1,39.64,18.216V12.566a9.139,9.139,0,0,0-5.358-8.3A12.63,12.63,0,0,0,32.087,3.5V3.141a3.141,3.141,0,1,0-6.281,0v.415a12.447,12.447,0,0,0-1.976.715,9.5,9.5,0,0,0-5.562,8.292v5.653a13.937,13.937,0,0,1-4.212,10.233.628.628,0,0,0,.336,1.065l5.962,1.029c1.111.192,2.133.349,3.106.478a6.21,6.21,0,0,0,11.2,0c.969-.129,1.987-.285,3.091-.476l5.961-1.029a.628.628,0,0,0,.337-1.064ZM27.061,3.141a1.884,1.884,0,1,1,3.769,0v.114a12.485,12.485,0,0,0-3.769.03Zm2,30.15a5.034,5.034,0,0,1-4.031-2.082,38.918,38.918,0,0,0,4.024.217,38.686,38.686,0,0,0,4.039-.219A5.036,5.036,0,0,1,29.061,33.291ZM37.539,29.3c-1.205.208-2.31.377-3.354.51h0c-.46.058-.907.109-1.345.153h-.014c-.4.04-.791.072-1.178.1l-.22.015c-.335.022-.667.039-1,.052l-.2.008c-.781.026-1.552.026-2.333,0l-.208-.009q-.488-.019-.984-.051l-.234-.016c-.377-.027-.758-.059-1.148-.1l-.04,0c-.435-.043-.879-.094-1.335-.152h-.006c-1.048-.133-2.156-.3-3.367-.511l-4.812-.832a15.118,15.118,0,0,0,3.769-10.257V12.566a8.224,8.224,0,0,1,4.831-7.155,11.22,11.22,0,0,1,2.2-.743l.019,0a11.421,11.421,0,0,1,4.761-.043c.008,0,.016,0,.024,0a11.356,11.356,0,0,1,2.4.785,7.973,7.973,0,0,1,4.624,7.156v5.653a15.283,15.283,0,0,0,3.965,10.258l-4.809.83Z" transform="translate(-13.871 0)" fill="#202a44" stroke="#141b2c" stroke-linecap="round" stroke-linejoin="bevel" stroke-width="0.5"/>
    </g>
  </g>
</svg>
