<svg xmlns="http://www.w3.org/2000/svg" width="46.355" height="27.81" viewBox="0 0 46.355 27.81">
  <g id="Group_252" data-name="Group 252" transform="translate(0.25 0.25)">
    <g id="binoculars">
      <path id="Path_2" data-name="Path 2" d="M315.486,105.419a.663.663,0,0,0,.622,1.172,5.9,5.9,0,1,1-1.788,1.456.663.663,0,1,0-1.022-.846,7.23,7.23,0,1,0,2.188-1.782Zm0,0" transform="translate(-283.501 -94.983)" fill="#202a44" stroke="#141b2c" stroke-linecap="round" stroke-linejoin="bevel" stroke-width="0.5"/>
      <path id="Path_3" data-name="Path 3" d="M44.08,119.035a7.228,7.228,0,1,0-7.228-7.228A7.237,7.237,0,0,0,44.08,119.035Zm0-13.13a5.9,5.9,0,1,1-5.9,5.9A5.909,5.909,0,0,1,44.08,105.9Zm0,0" transform="translate(-33.593 -94.983)" fill="#202a44" stroke="#141b2c" stroke-linecap="round" stroke-linejoin="bevel" stroke-width="0.5"/>
      <path id="Path_4" data-name="Path 4" d="M232.683,41.871a2.262,2.262,0,1,0-2.262-2.262A2.264,2.264,0,0,0,232.683,41.871Zm0-3.2a.935.935,0,1,1-.935.935A.936.936,0,0,1,232.683,38.674Zm0,0" transform="translate(-209.756 -34.046)" fill="#202a44" stroke="#141b2c" stroke-linecap="round" stroke-linejoin="bevel" stroke-width="0.5"/>
      <path id="Path_5" data-name="Path 5" d="M10.622,27.31c4.959,0,6.724-.951,8.281-1.789a7.128,7.128,0,0,1,4.024-1.076,7.129,7.129,0,0,1,4.024,1.076c1.557.839,3.322,1.789,8.281,1.789a10.622,10.622,0,1,0,0-21.244c-1.892,0-2.923-1.039-4.228-2.354C29.363,2.058,27.32,0,22.927,0S16.492,2.058,14.85,3.712c-1.305,1.315-2.336,2.354-4.228,2.354A10.576,10.576,0,0,0,4.784,7.813a.672.672,0,1,0,.739,1.122,9.288,9.288,0,1,1-1.864,1.62.672.672,0,0,0-1.008-.889,10.621,10.621,0,0,0,7.97,17.644ZM44.511,16.688a9.279,9.279,0,1,1-18.557,0,9.42,9.42,0,0,1,9.279-9.279A9.289,9.289,0,0,1,44.511,16.688ZM13.674,6.512A12.951,12.951,0,0,0,15.8,4.659c1.618-1.63,3.291-3.315,7.124-3.315s5.506,1.685,7.123,3.315a12.965,12.965,0,0,0,2.13,1.854l-.033.011a10.617,10.617,0,0,0-5.572,16.314,10.42,10.42,0,0,0,1.492,1.686l.183.164c-.231-.116-.448-.233-.662-.348A8.428,8.428,0,0,0,22.927,23.1a8.428,8.428,0,0,0-4.661,1.236c-.213.115-.43.232-.662.348a10.605,10.605,0,0,0,1.253-14.7l-.024-.031a10.741,10.741,0,0,0-5.127-3.434Zm0,0" transform="translate(0)" fill="#202a44" stroke="#141b2c" stroke-linecap="round" stroke-linejoin="bevel" stroke-width="0.5"/>
    </g>
  </g>
</svg>
