<svg xmlns="http://www.w3.org/2000/svg" width="29.479" height="27.881" viewBox="0 0 29.479 27.881"><defs><style>.a{fill:#002a6e;stroke:#002a6e;stroke-width:0.5px;}</style></defs><g transform="translate(0.25 0.25)"><g transform="translate(0 0)"><path class="a" d="M2.9,21.253H26.081a2.908,2.908,0,0,0,2.9-2.9V2.9a2.908,2.908,0,0,0-2.9-2.9H2.9A2.908,2.908,0,0,0,0,2.9v15.45A2.908,2.908,0,0,0,2.9,21.253ZM.453,2.9A2.449,2.449,0,0,1,2.9.454H26.081A2.449,2.449,0,0,1,28.526,2.9v15.45A2.449,2.449,0,0,1,26.081,20.8H2.9A2.449,2.449,0,0,1,.453,18.352Z" transform="translate(0 0)"/><path class="a" d="M14.5,6.222V18.6l10.71-6.192Zm.453.785,9.352,5.4-9.352,5.407Z" transform="translate(-4.165 -1.787)"/><path class="a" d="M7.37,32.221A2.2,2.2,0,0,0,5.191,34.2H1.27v.453H5.191a2.193,2.193,0,0,0,4.365,0H28.439V34.2H9.549a2.2,2.2,0,0,0-2.179-1.98Zm0,3.961a1.754,1.754,0,1,1,1.752-1.754A1.752,1.752,0,0,1,7.37,36.182Z" transform="translate(-0.365 -9.253)"/></g></g></svg>