<svg xmlns="http://www.w3.org/2000/svg" width="21.629" height="21.33" viewBox="0 0 21.629 21.33">
  <g id="Group_6148" data-name="Group 6148" transform="translate(-5357.66 795)">
    <path id="Path_2752" data-name="Path 2752" d="M9.972,16.656a7.371,7.371,0,0,1-6.942-4.64.536.536,0,0,1,0-.376A7.371,7.371,0,0,1,9.972,7a7.371,7.371,0,0,1,6.942,4.64.536.536,0,0,1,0,.376A7.371,7.371,0,0,1,9.972,16.656ZM4.114,11.828a6.314,6.314,0,0,0,5.858,3.755,6.314,6.314,0,0,0,5.858-3.755A6.314,6.314,0,0,0,9.972,8.072a6.314,6.314,0,0,0-5.858,3.755Z" transform="translate(5358.992 -796.187)" fill="#3e3e3e"/>
    <path id="Path_2753" data-name="Path 2753" d="M13.682,16.365a2.682,2.682,0,1,1,2.682-2.682,2.682,2.682,0,0,1-2.682,2.682Zm0-4.292a1.609,1.609,0,1,0,1.609,1.609A1.609,1.609,0,0,0,13.682,12.073Z" transform="translate(5355.282 -798.042)" fill="#3e3e3e"/>
    <path id="Path_2756" data-name="Path 2756" d="M7.807,957.4a2.2,2.2,0,0,0-2.2,2.2V971.82a.732.732,0,1,0,1.464,0V959.6a.8.8,0,0,1,.732-.733H24.644a.8.8,0,0,1,.732.733v16.859a.8.8,0,0,1-.732.733h-12.2a.733.733,0,1,0,0,1.466h12.2a2.2,2.2,0,0,0,2.2-2.2V959.6a2.2,2.2,0,0,0-2.2-2.2Z" transform="translate(5352.449 -1752.405)" fill="#3e3e3e"/>
    <path id="Path_2757" data-name="Path 2757" d="M28.059,32.451l1.267-1.267a1.962,1.962,0,1,1,.311.311L28.37,32.761a.22.22,0,0,1-.311-.311Zm3.881-1.413a1.526,1.526,0,1,0-2.158,0A1.528,1.528,0,0,0,31.94,31.038Z" transform="translate(5330.165 -806.995)" fill="#3e3e3e" stroke="#3e3e3e" stroke-width="1"/>
  </g>
</svg>
