<svg xmlns="http://www.w3.org/2000/svg" width="18.833" height="17.306" viewBox="0 0 18.833 17.306"><defs><style>.a{fill:#3e3e3e;stroke:#3e3e3e;stroke-width:0.5px;}</style></defs><g transform="translate(0.25 -2.249)"><path class="a" d="M18.027,28.416V16.5H14.361V28.416h-.917V18.944H9.778v9.472H8.861V21.389H5.194v7.028H4.278V24.139H.611v4.278H.306a.306.306,0,1,0,0,.611H18.027a.306.306,0,1,0,0-.611Zm-16.805,0V24.75H3.667v3.667Zm4.583,0V22H8.25v6.417Zm4.583,0V19.556h2.444v8.861Zm4.583,0V17.111h2.444V28.416Z" transform="translate(0 -9.722)"/><path class="a" d="M7.335,10.239a.3.3,0,0,0,.152-.041L18.569,3.8l-.694,1.525a.305.305,0,0,0,.152.4.3.3,0,0,0,.126.027.306.306,0,0,0,.278-.179L19.52,3.186c0-.008,0-.016.006-.024a.3.3,0,0,0,.013-.049.223.223,0,0,0,.007-.024s0-.007,0-.01a.314.314,0,0,0,0-.034.307.307,0,0,0-.007-.049.27.27,0,0,0-.007-.035.318.318,0,0,0-.015-.031c0-.007,0-.015-.008-.023s-.012-.012-.016-.019a.251.251,0,0,0-.019-.028.292.292,0,0,0-.027-.024A.316.316,0,0,0,19.4,2.8a.3.3,0,0,0-.028-.018l-.009-.006c-.008,0-.016,0-.024-.006a.3.3,0,0,0-.051-.013.192.192,0,0,0-.023-.007L16.655,2.5a.305.305,0,1,0-.059.608l1.667.162L7.182,9.669a.306.306,0,0,0,.153.57Z" transform="translate(-4.881 0)"/></g></svg>