<svg xmlns="http://www.w3.org/2000/svg" width="28.979" height="28.979" viewBox="0 0 28.979 28.979"><defs><style>.a,.c{fill:#002a6e;}.a{stroke-linecap:round;stroke-linejoin:bevel;}.b,.c{stroke:none;}</style></defs><g class="a"><path class="b" d="M 14.48937892913818 28.7287425994873 C 14.26610851287842 28.7287425994873 14.03400897979736 28.72284317016602 13.79952907562256 28.71120262145996 C 13.73871898651123 28.70835304260254 13.6792688369751 28.70385360717773 13.6198787689209 28.69939231872559 C 13.58888912200928 28.69706344604492 13.55792903900146 28.69473266601563 13.52690887451172 28.69262313842773 C 13.39321899414063 28.68372344970703 13.25540924072266 28.67455291748047 13.12110900878906 28.66177368164063 C 13.02239894866943 28.65231323242188 12.92099857330322 28.6399040222168 12.82293891906738 28.6279125213623 L 12.78186893463135 28.62289237976074 L 12.7344388961792 28.61713409423828 C 12.64097881317139 28.60580253601074 12.54756927490234 28.59451293945313 12.45450878143311 28.58110237121582 C 12.330979347229 28.5635929107666 12.20566940307617 28.54230308532715 12.08448886871338 28.52170372009277 C 11.98864936828613 28.50519371032715 11.89271926879883 28.48857307434082 11.79678916931152 28.47007369995117 C 11.65608882904053 28.44358253479004 11.51806926727295 28.41376304626465 11.41342926025391 28.39072227478027 C 11.32394886016846 28.3708324432373 11.23398876190186 28.34989356994629 11.14449882507324 28.32848358154297 C 11.00522899627686 28.29494285583496 10.88008880615234 28.26300239562988 10.76224899291992 28.23090362548828 C 10.68567848205566 28.21052360534668 10.61122894287109 28.18882369995117 10.53686904907227 28.16717338562012 L 10.49577903747559 28.15522384643555 C 10.34612846374512 28.11165237426758 10.23198890686035 28.07698249816895 10.12589931488037 28.0428638458252 C 10.04727935791016 28.01745414733887 9.968668937683105 27.9902229309082 9.89008903503418 27.96303367614746 L 9.845019340515137 27.94745254516602 L 9.795358657836914 27.93023300170898 C 9.699539184570313 27.89703369140625 9.600459098815918 27.86270332336426 9.505489349365234 27.8270435333252 C 9.417239189147949 27.79420280456543 9.327288627624512 27.75791358947754 9.240288734436035 27.72282409667969 L 9.17802906036377 27.6977424621582 L 9.086029052734375 27.66072273254395 C 9.023018836975098 27.63548278808594 8.960068702697754 27.61028289794922 8.897778511047363 27.58377265930176 C 8.755969047546387 27.523193359375 8.617408752441406 27.45937347412109 8.453079223632813 27.38223266601563 C 8.430178642272949 27.3714427947998 8.406719207763672 27.36085319519043 8.383269309997559 27.35028266906738 C 8.356968879699707 27.33843231201172 8.330678939819336 27.32662391662598 8.304828643798828 27.31408309936523 C 7.118508815765381 26.74105262756348 6.019649028778076 26.0085334777832 5.038349151611328 25.13668251037598 L 4.832079887390137 24.95333671569824 L 4.838388919830322 24.94840240478516 L 4.630669116973877 24.74873352050781 C 3.26098895072937 23.43208312988281 2.183698892593384 21.88711357116699 1.428738951683044 20.15671348571777 C 0.646588921546936 18.36399269104004 0.249998927116394 16.45722389221191 0.249998927116394 14.48937320709229 C 0.249998927116394 6.637753009796143 6.637758731842041 0.2500032186508179 14.48937892913818 0.2500032186508179 C 22.34099960327148 0.2500032186508179 28.728759765625 6.637753009796143 28.728759765625 14.48937320709229 C 28.728759765625 16.4638729095459 28.32959938049316 18.37663269042969 27.5423698425293 20.17453384399414 C 26.78255844116211 21.90980339050293 25.69872856140137 23.45791244506836 24.32100868225098 24.77585411071777 L 24.11548805236816 24.97245407104492 L 24.12126350402832 24.97711372375488 L 23.91206932067871 25.16170310974121 C 22.93644905090332 26.02342414855957 21.8476390838623 26.74733352661133 20.67578887939453 27.31339263916016 C 20.63579940795898 27.33272361755371 20.59511947631836 27.35092353820801 20.55447959899902 27.36913299560547 C 20.52186965942383 27.38375282287598 20.48927879333496 27.39836311340332 20.4570484161377 27.41342353820801 L 20.38849830627441 27.44504356384277 C 20.28802871704102 27.49143409729004 20.18414878845215 27.53941345214844 20.08231925964355 27.58305358886719 C 19.99921798706055 27.61847305297852 19.91574859619141 27.65160369873047 19.82737922668457 27.68667411804199 L 19.74167823791504 27.72078323364258 L 19.66214942932129 27.75244331359863 C 19.59997940063477 27.77728271484375 19.53782844543457 27.80213356018066 19.4752082824707 27.82578277587891 C 19.34994888305664 27.87251281738281 19.21857833862305 27.9176025390625 19.09153938293457 27.96120262145996 L 19.01911926269531 27.98595237731934 C 18.96479988098145 28.00458335876465 18.91034889221191 28.02327346801758 18.85541915893555 28.0410327911377 C 18.71885871887207 28.08541297912598 18.57766914367676 28.12667274475098 18.45309829711914 28.16308403015137 C 18.3753490447998 28.18598365783691 18.29764938354492 28.20825386047363 18.21993827819824 28.22957229614258 C 18.09807968139648 28.26273345947266 17.9651985168457 28.29656410217285 17.81419944763184 28.33287239074707 C 17.73302841186523 28.35222244262695 17.65140914916992 28.37120246887207 17.56929969787598 28.38924407958984 C 17.4383487701416 28.41835403442383 17.3039493560791 28.44612312316895 17.16924858093262 28.471923828125 C 17.07815933227539 28.48957252502441 16.98758888244629 28.50521278381348 16.89700889587402 28.52084350585938 C 16.74935913085938 28.5463924407959 16.62841987609863 28.56585311889648 16.51631927490234 28.58210372924805 C 16.42639923095703 28.59506225585938 16.33592987060547 28.60593414306641 16.24541854858398 28.6168327331543 L 16.19949913024902 28.62237358093262 L 16.12956809997559 28.63081359863281 C 16.03468894958496 28.64230346679688 15.94507884979248 28.65316390991211 15.85360908508301 28.6617431640625 C 15.73593902587891 28.67313385009766 15.6141185760498 28.68132400512695 15.49629878997803 28.68924331665039 L 15.4534387588501 28.6921329498291 C 15.41942882537842 28.69442367553711 15.38541889190674 28.6970329284668 15.35139846801758 28.69964408874512 C 15.2940788269043 28.70404243469238 15.23675918579102 28.70847320556641 15.17903900146484 28.71116256713867 C 14.94377899169922 28.72284317016602 14.71199893951416 28.7287425994873 14.48937892913818 28.7287425994873 Z M 14.45991897583008 21.96704292297363 C 11.32781887054443 21.96704292297363 8.339959144592285 22.93930244445801 5.819358825683594 24.7787036895752 L 5.556128978729248 24.97079277038574 L 5.809838771820068 25.17529296875 C 5.840388774871826 25.19992256164551 5.871328830718994 25.22398376464844 5.902288913726807 25.2480640411377 L 5.955449104309082 25.28956413269043 C 6.187708854675293 25.4732723236084 6.406619071960449 25.63631248474121 6.624289035797119 25.78769302368164 C 6.644168853759766 25.80167388916016 6.664938926696777 25.81657409667969 6.685698986053467 25.83145332336426 C 6.727778911590576 25.86163330078125 6.769848823547363 25.89175415039063 6.812968730926514 25.92061233520508 C 7.055048942565918 26.0835132598877 7.320518970489502 26.24796295166016 7.624009132385254 26.42301368713379 L 7.677888870239258 26.45434379577637 C 7.72852897644043 26.48385238647461 7.778998851776123 26.51324272155762 7.830258846282959 26.54160308837891 C 8.115018844604492 26.6993236541748 8.410669326782227 26.84930229187012 8.708898544311523 26.98730278015137 C 8.768598556518555 27.01494407653809 8.828808784484863 27.04209327697754 8.889019012451172 27.06873321533203 C 9.22455883026123 27.21845245361328 9.53865909576416 27.34540367126465 9.848568916320801 27.45652389526367 C 9.865168571472168 27.46243286132813 9.881258964538574 27.4677734375 9.89734935760498 27.47309303283691 C 9.909769058227539 27.47719383239746 9.922199249267578 27.48128318786621 9.934608459472656 27.48570251464844 C 10.30612850189209 27.61587333679199 10.65077877044678 27.72221374511719 10.98943901062012 27.81121253967285 L 10.99872875213623 27.81354331970215 C 11.32694911956787 27.8996639251709 11.675048828125 27.97532272338867 12.05951881408691 28.04397392272949 L 12.10854911804199 28.05282402038574 C 12.1391487121582 28.05840301513672 12.16962909698486 28.0639533996582 12.20051860809326 28.06909370422363 C 12.54677867889404 28.12747383117676 12.89722919464111 28.17283248901367 13.24164867401123 28.20383262634277 C 13.27650928497314 28.20691299438477 13.31113910675049 28.20942306518555 13.34583854675293 28.21192359924316 L 13.40911865234375 28.21662330627441 C 13.80597877502441 28.24769401550293 14.15928936004639 28.26279258728027 14.48937892913818 28.26279258728027 C 14.81816864013672 28.26279258728027 15.17008876800537 28.24769401550293 15.56524848937988 28.21662330627441 L 15.6291389465332 28.21184349060059 C 15.66321849822998 28.20936393737793 15.69729900360107 28.20688247680664 15.73137855529785 28.20387268066406 C 16.0811882019043 28.17238235473633 16.43210983276367 28.1272029876709 16.77478981018066 28.06952285766602 C 16.81468963623047 28.0626335144043 16.85311889648438 28.0555534362793 16.89185905456543 28.04841232299805 L 16.9041690826416 28.046142578125 C 17.62772941589355 27.91722297668457 18.34501838684082 27.72938346862793 19.03466987609863 27.48808288574219 L 19.05661964416504 27.48088264465332 C 19.07469940185547 27.47500228881836 19.0926685333252 27.46910285949707 19.11043930053711 27.46256256103516 C 19.42309951782227 27.3512134552002 19.7420597076416 27.22280311584473 20.08305931091309 27.07090377807617 L 20.1605281829834 27.03567314147949 L 20.24048805236816 26.99931335449219 C 20.54815864562988 26.85792350769043 20.85028839111328 26.70544242858887 21.13875961303711 26.54599380493164 C 21.17882919311523 26.52383232116699 21.21826934814453 26.50087356567383 21.25773811340332 26.47785377502441 L 21.31853866577148 26.44259262084961 C 21.60684967041016 26.27785301208496 21.86918830871582 26.11626243591309 22.12011909484863 25.94881248474121 C 22.16583824157715 25.918212890625 22.21073913574219 25.88706398010254 22.25566864013672 25.85587310791016 L 22.30595970153809 25.82102394104004 C 22.52471923828125 25.66995239257813 22.74896812438965 25.50395393371582 22.99155807495117 25.31350326538086 L 23.02341842651367 25.28863334655762 C 23.06247901916504 25.25816345214844 23.10138893127441 25.22779273986816 23.13970947265625 25.19682312011719 L 23.39211845397949 24.99283409118652 L 23.13047981262207 24.80083274841309 C 20.60415840148926 22.94695281982422 17.60592842102051 21.96704292297363 14.45991897583008 21.96704292297363 Z M 14.45991897583008 21.50108337402344 C 17.76626968383789 21.50108337402344 20.91598892211914 22.55886268615723 23.56854820251465 24.56007385253906 L 23.73638916015625 24.68670272827148 L 23.88991928100586 24.54306411743164 C 26.66894912719727 21.94302368164063 28.26279830932617 18.27859306335449 28.26279830932617 14.48937320709229 C 28.26279830932617 6.894693374633789 22.08406829833984 0.7159631848335266 14.48937892913818 0.7159631848335266 C 6.894689083099365 0.7159631848335266 0.7159589529037476 6.894693374633789 0.7159589529037476 14.48937320709229 C 0.7159589529037476 18.26425361633301 2.299948930740356 21.91936302185059 5.061779022216797 24.51748275756836 L 5.214929103851318 24.66155242919922 L 5.383109092712402 24.53536415100098 C 8.028888702392578 22.55032348632813 11.16758918762207 21.50108337402344 14.45991897583008 21.50108337402344 Z"/><path class="c" d="M 5.670629501342773 24.63338088989258 C 5.624591827392578 24.66712951660156 5.578889846801758 24.70102500915527 5.533149719238281 24.73534393310547 L 4.92506217956543 24.70149803161621 L 5.204378128051758 24.94978332519531 C 5.351543426513672 25.08053207397461 5.501405715942383 25.20809745788574 5.653850555419922 25.33239936828613 L 5.670629501342773 24.63338088989258 M 23.27971458435059 24.65653991699219 L 23.29602813720703 25.35567855834961 C 23.44880676269531 25.23179244995117 23.59904289245605 25.10463714599609 23.74665832519531 24.97425270080566 L 24.0263614654541 24.72744178771973 L 23.41798782348633 24.75965309143066 C 23.37197113037109 24.72493553161621 23.32603454589844 24.6906795501709 23.27971458435059 24.65653991699219 M 14.48937892913818 3.814697265625e-06 C 22.47881889343262 3.814697265625e-06 28.978759765625 6.499933242797852 28.978759765625 14.48937320709229 C 28.978759765625 18.60146331787109 27.25404930114746 22.31605339050293 24.49381828308105 24.95650291442871 L 24.5087890625 24.96857261657715 L 24.07747840881348 25.34916305541992 C 23.07625961303711 26.23349380493164 21.96735000610352 26.96714401245117 20.7845287322998 27.53850364685059 C 20.71159934997559 27.57376289367676 20.63625907897949 27.60563278198242 20.56283950805664 27.63993263244629 C 20.43581771850586 27.69837379455566 20.30926895141602 27.75778388977051 20.1807975769043 27.81284332275391 C 20.06634902954102 27.86162376403809 19.9504280090332 27.90654373168945 19.83450889587402 27.95290374755859 C 19.74419021606445 27.98864364624023 19.65435791015625 28.02535247802734 19.56355857849121 28.05965232849121 C 19.43412017822266 28.10794258117676 19.30323028564453 28.15286254882813 19.17234802246094 28.19778251647949 C 19.09264755249023 28.22482299804688 19.01296997070313 28.25283241271973 18.93230819702148 28.2789134979248 C 18.79706954956055 28.32287406921387 18.66037750244141 28.36296272277832 18.52322006225586 28.40304374694824 C 18.44448852539063 28.42623329162598 18.36528015136719 28.44893264770508 18.28606796264648 28.47066307067871 C 18.14939880371094 28.50785255432129 18.01125907897949 28.5426139831543 17.87265014648438 28.57594299316406 C 17.78956985473633 28.59575271606445 17.70650863647461 28.61506271362305 17.62294769287109 28.6334228515625 C 17.48818969726563 28.66337394714355 17.35247802734375 28.69137382507324 17.21627807617188 28.71746253967285 C 17.1240291595459 28.73533248901367 17.03178024291992 28.75127410888672 16.93952941894531 28.76720237731934 C 16.81104850769043 28.78943252563477 16.68209838867188 28.81067276000977 16.55217933654785 28.82951354980469 C 16.44496917724609 28.84497261047363 16.33725929260254 28.85752296447754 16.22954940795898 28.87056350708008 C 16.11219024658203 28.88457298278809 15.9953088760376 28.89954376220703 15.87697887420654 28.91065406799316 C 15.74221897125244 28.92369270324707 15.60602855682373 28.93238258361816 15.47030925750732 28.94156265258789 C 15.37708854675293 28.94784355163574 15.28435897827148 28.95653343200684 15.19065856933594 28.96088409423828 C 14.95738887786865 28.97247314453125 14.72362899780273 28.9787425994873 14.48937892913818 28.9787425994873 C 14.25464916229248 28.9787425994873 14.02039909362793 28.97247314453125 13.78712940216064 28.96089363098145 C 13.69390869140625 28.95653343200684 13.60213851928711 28.94833374023438 13.5098991394043 28.94204330444336 C 13.37224864959717 28.9328727722168 13.23458862304688 28.92370414733887 13.0974292755127 28.91065406799316 C 12.98151874542236 28.89954376220703 12.86656951904297 28.88506317138672 12.75161933898926 28.87105369567871 C 12.64052963256836 28.85752296447754 12.52943801879883 28.844482421875 12.41884803771973 28.82854270935059 C 12.29278945922852 28.81067276000977 12.16769981384277 28.78943252563477 12.04259872436523 28.76817321777344 C 11.94455909729004 28.75128364562988 11.84699821472168 28.7343635559082 11.74943923950195 28.71554374694824 C 11.61854934692383 28.69090270996094 11.48910903930664 28.66337394714355 11.35966873168945 28.63487243652344 C 11.26838874816895 28.61458396911621 11.17710876464844 28.59334373474121 11.0863094329834 28.57161331176758 C 10.95589828491211 28.54020309448242 10.82597923278809 28.50737380981445 10.6965389251709 28.47211265563965 C 10.60573959350586 28.44795227050781 10.51590919494629 28.4213924407959 10.42607879638672 28.39531326293945 C 10.30001831054688 28.35860252380371 10.17395973205566 28.32093238830566 10.04934883117676 28.28085327148438 C 9.953718185424805 28.24994277954102 9.85856819152832 28.21660232543945 9.763429641723633 28.18376350402832 C 9.647989273071289 28.14367294311523 9.532079696655273 28.10407257080078 9.417608261108398 28.06108283996582 C 9.306039810180664 28.01956367492676 9.195438385009766 27.97415351867676 9.0848388671875 27.92972373962402 C 8.989688873291016 27.89108276367188 8.894058227539063 27.8538932800293 8.79987907409668 27.81380271911621 C 8.647258758544922 27.74860382080078 8.497058868408203 27.67905235290527 8.34684944152832 27.60854339599609 C 8.296619415283203 27.58486366271973 8.245418548583984 27.56313323974609 8.1956787109375 27.53899383544922 C 7.000778198242188 26.96182250976563 5.88123893737793 26.2199821472168 4.872289657592773 25.32356262207031 L 4.441959381103516 24.94105339050293 L 4.457418441772461 24.92896270751953 C 1.713129043579102 22.29094314575195 -1.9073486328125e-06 18.58745193481445 -1.9073486328125e-06 14.48937320709229 C -1.9073486328125e-06 6.499933242797852 6.49993896484375 3.814697265625e-06 14.48937892913818 3.814697265625e-06 Z M 23.71912002563477 24.36050415039063 C 26.35858917236328 21.89103317260742 28.01279830932617 18.3807430267334 28.01279830932617 14.48937320709229 C 28.01279830932617 7.032663345336914 21.94609832763672 0.9659633636474609 14.48937892913818 0.9659633636474609 C 7.032659530639648 0.9659633636474609 0.9659595489501953 7.032663345336914 0.9659595489501953 14.48937320709229 C 0.9659595489501953 18.36770248413086 2.609539031982422 21.86736297607422 5.233078002929688 24.33539390563965 C 7.915548324584961 22.32281303405762 11.09306907653809 21.25108337402344 14.45991897583008 21.25108337402344 C 17.84173965454102 21.25108337402344 21.03036880493164 22.33199310302734 23.71912002563477 24.36050415039063 Z M 14.48937892913818 28.01279258728027 C 14.84339904785156 28.01279258728027 15.19548892974854 27.99492263793945 15.54565906524658 27.96739387512207 C 15.60022926330566 27.96305274963379 15.65480899810791 27.95966339111328 15.70938873291016 27.95484352111816 C 16.05278778076172 27.9239330291748 16.39472961425781 27.87997245788574 16.73329925537109 27.8229923248291 C 16.77531814575195 27.81573295593262 16.81686019897461 27.80802345275879 16.85887908935547 27.80028343200684 C 17.57175827026367 27.67326354980469 18.2715892791748 27.49021339416504 18.95211029052734 27.25211334228516 C 18.97625923156738 27.24389266967773 19.00040817260742 27.23665237426758 19.02406883239746 27.22795295715332 C 19.34814834594727 27.11252403259277 19.66691970825195 26.98259353637695 19.9813289642334 26.84253311157227 C 20.03302001953125 26.81887245178223 20.08469772338867 26.79569244384766 20.13636779785156 26.77202224731445 C 20.43484878540039 26.63486289978027 20.72946929931641 26.4865837097168 21.01780891418457 26.32719421386719 C 21.07720947265625 26.29435348510742 21.13516998291016 26.25958251953125 21.19409942626953 26.22576332092285 C 21.46118927001953 26.07315254211426 21.72440910339355 25.91232299804688 21.98135948181152 25.74086380004883 C 22.04268836975098 25.69980239868164 22.10305786132813 25.65731239318848 22.16391944885254 25.61528396606445 C 22.39333915710449 25.45686340332031 22.61695861816406 25.28975296020508 22.83718872070313 25.11686325073242 C 22.88597869873047 25.07869338989258 22.93475914001465 25.04102325439453 22.98256874084473 25.00238418579102 C 20.49667930603027 23.17817306518555 17.56256866455078 22.21704292297363 14.45991897583008 22.21704292297363 C 11.37125968933105 22.21704292297363 8.447309494018555 23.17044258117676 5.966728210449219 24.98065376281738 C 6.014059066772461 25.01880264282227 6.062358856201172 25.05552291870117 6.11016845703125 25.09319305419922 C 6.325098037719727 25.26319313049316 6.543399810791016 25.42692375183105 6.76702880859375 25.58244323730469 C 6.828849792480469 25.62591361999512 6.889219284057617 25.67082214355469 6.952009201049805 25.71284294128418 C 7.211849212646484 25.8876838684082 7.478448867797852 26.05045318603516 7.748918533325195 26.20645332336426 C 7.816539764404297 26.24557304382324 7.883188247680664 26.2851734161377 7.951288223266602 26.32285308837891 C 8.233829498291016 26.47934341430664 8.521688461303711 26.62520217895508 8.813888549804688 26.76042366027832 C 8.872329711914063 26.78747367858887 8.931259155273438 26.81404304504395 8.990179061889648 26.84011268615723 C 9.299768447875977 26.97825241088867 9.613698959350586 27.10671234130859 9.932949066162109 27.22118377685547 C 9.961448669433594 27.23134231567383 9.989948272705078 27.24003219604492 10.0184383392334 27.25017356872559 C 10.35893821716309 27.36947250366211 10.70378875732422 27.47765350341797 11.052978515625 27.56942367553711 C 11.05491828918457 27.56990242004395 11.05684852600098 27.57038307189941 11.05877876281738 27.57086372375488 C 11.40313911437988 27.66119384765625 11.7518482208252 27.73508262634277 12.10345840454102 27.7978630065918 C 12.14982986450195 27.80608367919922 12.19522857666016 27.81477355957031 12.24159812927246 27.8224925994873 C 12.57967948913574 27.87949371337891 12.92065811157227 27.9239330291748 13.26405906677246 27.95484352111816 C 13.31863880157471 27.95966339111328 13.37369918823242 27.96305274963379 13.42875862121582 27.96739387512207 C 13.78036880493164 27.99492263793945 14.13390922546387 28.01279258728027 14.48937892913818 28.01279258728027 Z"/></g><g class="a" transform="translate(-14.994 -2.068)"><path class="b" d="M 29.48296356201172 5.681917667388916 C 29.3545036315918 5.681917667388916 29.2499942779541 5.577407836914063 29.2499942779541 5.44893741607666 L 29.2499942779541 4.482977867126465 C 29.2499942779541 4.354507446289063 29.3545036315918 4.249997615814209 29.48296356201172 4.249997615814209 C 29.6114330291748 4.249997615814209 29.71594429016113 4.354507446289063 29.71594429016113 4.482977867126465 L 29.71594429016113 5.44893741607666 C 29.71594429016113 5.577407836914063 29.6114330291748 5.681917667388916 29.48296356201172 5.681917667388916 Z"/><path class="c" d="M 29.48296356201172 5.931917667388916 C 29.21587371826172 5.931917667388916 28.9999942779541 5.716027736663818 28.9999942779541 5.44893741607666 L 28.9999942779541 4.482977867126465 C 28.9999942779541 4.215887546539307 29.21587371826172 3.999997615814209 29.48296356201172 3.999997615814209 C 29.75005340576172 3.999997615814209 29.96594429016113 4.215887546539307 29.96594429016113 4.482977867126465 L 29.96594429016113 5.44893741607666 C 29.96594429016113 5.716027736663818 29.75005340576172 5.931917667388916 29.48296356201172 5.931917667388916 Z"/></g><g class="a" transform="translate(-27.144 -14.994)"><path class="b" d="M 53.94892501831055 29.7159481048584 L 52.98296356201172 29.7159481048584 C 52.85449600219727 29.7159481048584 52.74998474121094 29.61143684387207 52.74998474121094 29.48296737670898 C 52.74998474121094 29.35450744628906 52.85449600219727 29.24999809265137 52.98296356201172 29.24999809265137 L 53.94892501831055 29.24999809265137 C 54.07737350463867 29.24999809265137 54.181884765625 29.35450744628906 54.181884765625 29.48296737670898 C 54.181884765625 29.61143684387207 54.07737350463867 29.7159481048584 53.94892501831055 29.7159481048584 Z"/><path class="c" d="M 52.98296356201172 28.99999809265137 L 53.94892501831055 28.99999809265137 C 54.21601486206055 28.99999809265137 54.431884765625 29.21587753295898 54.431884765625 29.48296737670898 C 54.431884765625 29.75005722045898 54.21601486206055 29.9659366607666 53.94892501831055 29.9659366607666 L 52.98296356201172 29.9659366607666 C 52.71587371826172 29.9659366607666 52.49998474121094 29.75005722045898 52.49998474121094 29.48296737670898 C 52.49998474121094 29.21587753295898 52.71587371826172 28.99999809265137 52.98296356201172 28.99999809265137 Z"/></g><g class="a" transform="translate(-1.81 -14.994)"><path class="b" d="M 4.948936462402344 29.7159481048584 L 3.982976675033569 29.7159481048584 C 3.854506731033325 29.7159481048584 3.749996662139893 29.61143684387207 3.749996662139893 29.48296737670898 C 3.749996662139893 29.35450744628906 3.854506731033325 29.24999809265137 3.982976675033569 29.24999809265137 L 4.948936462402344 29.24999809265137 C 5.077406883239746 29.24999809265137 5.1819167137146 29.35450744628906 5.1819167137146 29.48296737670898 C 5.1819167137146 29.61143684387207 5.077406883239746 29.7159481048584 4.948936462402344 29.7159481048584 Z"/><path class="c" d="M 3.982976913452148 28.99999809265137 L 4.948936462402344 28.99999809265137 C 5.216026782989502 28.99999809265137 5.4319167137146 29.21587753295898 5.4319167137146 29.48296737670898 C 5.4319167137146 29.75005722045898 5.216026782989502 29.9659366607666 4.948936462402344 29.9659366607666 L 3.982976913452148 29.9659366607666 C 3.71588659286499 29.9659366607666 3.499996662139893 29.75005722045898 3.499996662139893 29.48296737670898 C 3.499996662139893 29.21587753295898 3.71588659286499 28.99999809265137 3.982976913452148 28.99999809265137 Z"/></g><g class="a" transform="translate(-21.068 -3.834)"><path class="b" d="M 41.23213195800781 8.969233512878418 C 41.19090270996094 8.969233512878418 41.15198135375977 8.958793640136719 41.11646270751953 8.938213348388672 C 41.06210327148438 8.906773567199707 41.02340316772461 8.856423377990723 41.00728988647461 8.796313285827637 C 40.99123001098633 8.736403465270996 40.99953079223633 8.673833847045898 41.03066253662109 8.62010383605957 L 41.51383209228516 7.783243656158447 C 41.55540084838867 7.711263656616211 41.63286209106445 7.666533470153809 41.71595001220703 7.666533470153809 C 41.75691986083984 7.666533470153809 41.79593276977539 7.677083492279053 41.8319206237793 7.697893619537354 C 41.94322204589844 7.762153625488281 41.98143005371094 7.905003547668457 41.91723251342773 8.016413688659668 L 41.43437194824219 8.852743148803711 C 41.39286041259766 8.924553871154785 41.31534194946289 8.969233512878418 41.23213195800781 8.969233512878418 Z"/><path class="c" d="M 41.23213195800781 9.219233512878418 C 41.15002059936523 9.219233512878418 41.06695175170898 9.198463439941406 40.99111175537109 9.154513359069824 C 40.75978088378906 9.020733833312988 40.68057250976563 8.72563362121582 40.81435012817383 8.494763374328613 L 41.29733276367188 7.658243656158447 C 41.38677597045898 7.503359794616699 41.54898834228516 7.416532516479492 41.7159538269043 7.416532516479492 C 41.79785919189453 7.416532516479492 41.88093566894531 7.437446117401123 41.95707321166992 7.481473445892334 C 42.18794250488281 7.614773273468018 42.26715087890625 7.909873485565186 42.13385009765625 8.141223907470703 L 41.65088272094727 8.977743148803711 C 41.56153106689453 9.132293701171875 41.39924240112305 9.219233512878418 41.23213195800781 9.219233512878418 Z"/></g><g class="a" transform="translate(-25.516 -21.327)"><path class="b" d="M 50.67098999023438 42.44868087768555 C 50.62976837158203 42.44868087768555 50.59085845947266 42.4382438659668 50.55534744262695 42.41766357421875 L 49.71846771240234 41.93448257446289 C 49.60730743408203 41.87030029296875 49.56910705566406 41.72745132446289 49.63330841064453 41.61604309082031 C 49.67469024658203 41.54411315917969 49.75210952758789 41.4995231628418 49.83543014526367 41.4995231628418 C 49.87640762329102 41.4995231628418 49.91531753540039 41.51003265380859 49.95109939575195 41.5307731628418 L 50.78793716430664 42.01394271850586 C 50.84212875366211 42.04517364501953 50.88071823120117 42.09533309936523 50.89679718017578 42.15530014038086 C 50.91287994384766 42.21529388427734 50.90453720092773 42.27806091308594 50.87331771850586 42.33205032348633 C 50.83172988891602 42.40399169921875 50.75419998168945 42.44868087768555 50.67098999023438 42.44868087768555 Z"/><path class="c" d="M 49.83543014526367 41.24951934814453 C 49.91738891601563 41.24952697753906 50.00047302246094 41.27043533325195 50.07645034790039 41.31446075439453 L 50.91294860839844 41.79744338989258 C 51.14430999755859 41.93075180053711 51.22350692749023 42.22585296630859 51.08974838256836 42.45719146728516 C 51.0003776550293 42.61175155639648 50.83808898925781 42.69868087768555 50.67098999023438 42.69868087768555 C 50.5888786315918 42.69868087768555 50.50581741333008 42.67791366577148 50.42998886108398 42.63396072387695 L 49.59346771240234 42.15098190307617 C 49.36259841918945 42.01769256591797 49.28339004516602 41.72257232666016 49.41669845581055 41.4912223815918 C 49.50580596923828 41.33634567260742 49.66835403442383 41.24950790405273 49.83543014526367 41.24951934814453 Z"/></g><g class="a" transform="translate(-3.576 -8.66)"><path class="b" d="M 8.235005378723145 17.94891738891602 C 8.193775177001953 17.94891738891602 8.154865264892578 17.9384765625 8.119355201721191 17.91789627075195 L 7.282475471496582 17.43471717834473 C 7.17123556137085 17.37048721313477 7.132975578308105 17.22772789001465 7.197205543518066 17.11648750305176 C 7.238705635070801 17.04461669921875 7.316235542297363 16.99996757507324 7.399555683135986 16.99996757507324 C 7.440565586090088 16.99996757507324 7.479555606842041 17.01047706604004 7.515445232391357 17.03119659423828 L 8.351975440979004 17.51418685913086 C 8.463115692138672 17.57836723327637 8.501325607299805 17.72120666503906 8.437125205993652 17.83261680603027 C 8.395725250244141 17.90423774719238 8.318205833435059 17.94891738891602 8.235005378723145 17.94891738891602 Z"/><path class="c" d="M 8.235005378723145 18.19891738891602 C 8.152895927429199 18.19891738891602 8.069825172424316 18.17814636230469 7.993995666503906 18.13419723510742 L 7.157475471496582 17.65122604370117 C 6.926615238189697 17.51791763305664 6.847405433654785 17.22233772277832 6.980705261230469 16.99147605895996 C 7.070136070251465 16.83658599853516 7.232579231262207 16.74996948242188 7.399550914764404 16.74996948242188 C 7.481456756591797 16.74996948242188 7.564476013183594 16.77082824707031 7.64045524597168 16.814697265625 L 8.476975440979004 17.29768753051758 C 8.70783519744873 17.43097686767578 8.787045478820801 17.72607612609863 8.653745651245117 17.95742607116699 C 8.564395904541016 18.11198616027832 8.402115821838379 18.19891738891602 8.235005378723145 18.19891738891602 Z"/></g><g class="a" transform="translate(-8.399 -3.817)"><path class="b" d="M 17.21108818054199 8.93511962890625 C 17.1268482208252 8.93511962890625 17.05110931396484 8.891339302062988 17.00848770141602 8.818009376525879 L 16.52585792541504 7.982119560241699 C 16.49452781677246 7.928049564361572 16.48622894287109 7.865429401397705 16.50227928161621 7.805449485778809 C 16.51835823059082 7.7453293800354 16.55694770812988 7.695079803466797 16.61094856262207 7.66396951675415 C 16.64735794067383 7.642789363861084 16.68606948852539 7.632309436798096 16.72691917419434 7.632309436798096 C 16.81027793884277 7.632309436798096 16.88780784606934 7.676999568939209 16.92926788330078 7.748939514160156 L 17.4123477935791 8.585659980773926 C 17.44368934631348 8.639729499816895 17.45198822021484 8.702339172363281 17.43594932556152 8.762319564819336 C 17.41985893249512 8.822439193725586 17.38126945495605 8.872679710388184 17.32726860046387 8.903800010681152 C 17.29122924804688 8.924679756164551 17.2523078918457 8.93511962890625 17.21108818054199 8.93511962890625 Z"/><path class="c" d="M 17.21108818054199 9.18511962890625 C 17.04396820068359 9.18511962890625 16.88216781616211 9.098189353942871 16.79233932495117 8.943629264831543 L 16.30935859680176 8.107119560241699 C 16.17556953430176 7.87624979019165 16.2547779083252 7.580669403076172 16.48612785339355 7.447359561920166 C 16.5619010925293 7.403266906738281 16.64489936828613 7.382314205169678 16.72692108154297 7.382314205169678 C 16.89376068115234 7.382314205169678 17.0565128326416 7.469037055969238 17.14587783813477 7.624129772186279 L 17.62885856628418 8.460659980773926 C 17.76264762878418 8.691519737243652 17.68343925476074 8.987099647521973 17.45208930969238 9.120409965515137 C 17.37625885009766 9.164349555969238 17.29318809509277 9.18511962890625 17.21108818054199 9.18511962890625 Z"/></g><g class="a" transform="translate(-25.384 -8.418)"><path class="b" d="M 49.58109664916992 17.4815845489502 C 49.49775695800781 17.4815845489502 49.42029571533203 17.43701362609863 49.37895584106445 17.36527442932129 C 49.34752655029297 17.31103324890137 49.33921813964844 17.2484130859375 49.35526657104492 17.18842315673828 C 49.37135696411133 17.12830352783203 49.40994644165039 17.07807350158691 49.46392822265625 17.04697418212891 L 50.30021667480469 16.56383323669434 C 50.33638763427734 16.54279327392578 50.37506484985352 16.53231430053711 50.41585540771484 16.53231430053711 C 50.49912643432617 16.53231430053711 50.57676696777344 16.57713317871094 50.61848831176758 16.64928436279297 C 50.64972686767578 16.70319366455078 50.65803527832031 16.76582336425781 50.64198684692383 16.82581329345703 C 50.62589645385742 16.88592338562012 50.58730697631836 16.9361629486084 50.5333251953125 16.9672737121582 L 49.69703674316406 17.45039367675781 C 49.66122817993164 17.47115325927734 49.6223258972168 17.4815845489502 49.58109664916992 17.4815845489502 Z"/><path class="c" d="M 49.58109664916992 17.7315845489502 C 49.41398620605469 17.7315845489502 49.25168609619141 17.64513397216797 49.16234588623047 17.49009323120117 C 49.02856826782227 17.25923347473145 49.1077766418457 16.96364402770996 49.33911514282227 16.83035469055176 L 50.17515563964844 16.34736442565918 C 50.25093460083008 16.30327033996582 50.33388519287109 16.28231620788574 50.41585540771484 16.28231620788574 C 50.58258819580078 16.28231620788574 50.74522018432617 16.36903381347656 50.83490753173828 16.52413368225098 C 50.96868515014648 16.75500297546387 50.88947677612305 17.05058288574219 50.65813827514648 17.18388366699219 L 49.82209777832031 17.6668643951416 C 49.74627685546875 17.71081352233887 49.6631965637207 17.7315845489502 49.58109664916992 17.7315845489502 Z"/></g><g class="a" transform="translate(-3.445 -21.085)"><path class="b" d="M 7.146110057830811 41.98156356811523 C 7.061740398406982 41.98156356811523 6.98606014251709 41.93789291381836 6.943660259246826 41.8647346496582 C 6.912540435791016 41.8110237121582 6.904230117797852 41.74839401245117 6.920280456542969 41.68840408325195 C 6.936370372772217 41.6282958984375 6.974960327148438 41.57805633544922 7.028940200805664 41.54694366455078 L 7.865230083465576 41.06381607055664 C 7.901400089263916 41.04276657104492 7.940080165863037 41.03229522705078 7.980860233306885 41.03229522705078 C 8.064129829406738 41.03229522705078 8.141779899597168 41.07711410522461 8.183500289916992 41.14926528930664 C 8.247489929199219 41.26033401489258 8.209290504455566 41.40318298339844 8.098140716552734 41.46736526489258 L 7.262050151824951 41.95037460327148 C 7.226240158081055 41.97113418579102 7.187340259552002 41.98156356811523 7.146110057830811 41.98156356811523 Z"/><path class="c" d="M 7.980862617492676 40.78229904174805 C 8.147594451904297 40.78229904174805 8.310232162475586 40.8690185546875 8.399920463562012 41.02412414550781 C 8.533220291137695 41.25547409057617 8.454020500183105 41.55055618286133 8.223150253295898 41.68386459350586 L 7.387110233306885 42.16684341430664 C 7.311280250549316 42.2108039855957 7.22821044921875 42.23156356811523 7.146110057830811 42.23156356811523 C 6.97899055480957 42.23156356811523 6.817200660705566 42.14511489868164 6.727360725402832 41.99008560180664 C 6.59358024597168 41.75921630859375 6.67279052734375 41.4636344909668 6.904129981994629 41.3303337097168 L 7.740170478820801 40.84734344482422 C 7.815942764282227 40.80325317382813 7.898893356323242 40.78229522705078 7.980862617492676 40.78229904174805 Z"/></g><g class="a" transform="translate(-13.443 -8.727)"><path class="b" d="M 27.9319019317627 24.35653495788574 C 27.48249244689941 24.35653495788574 27.06024169921875 24.18155479431152 26.7429313659668 23.86382484436035 C 26.42501258850098 23.54588508605957 26.2499828338623 23.12359428405762 26.2499828338623 22.67461395263672 C 26.2499828338623 22.2251033782959 26.42509269714355 21.80289459228516 26.74305152893066 21.48576354980469 C 27.04433250427246 21.18403434753418 27.47754287719727 21.01119422912598 27.93197250366211 21.01119422912598 C 28.27212142944336 21.01119422912598 28.59585189819336 21.10446357727051 28.8681526184082 21.28092384338379 L 29.03788185119629 21.39091491699219 L 29.18089294433594 21.24790382385254 L 33.23165130615234 17.19716453552246 C 33.27576065063477 17.15304374694824 33.33424377441406 17.12874412536621 33.39633178710938 17.12874412536621 C 33.45841217041016 17.12874412536621 33.51689147949219 17.15304374694824 33.56099319458008 17.1971549987793 C 33.60513305664063 17.24128341674805 33.62943267822266 17.29976463317871 33.62943267822266 17.36185455322266 C 33.62943267822266 17.42393493652344 33.60513305664063 17.48241424560547 33.56101226806641 17.52652359008789 L 29.46728134155273 21.62026405334473 L 29.33823204040527 21.74932479858398 L 29.42183303833008 21.91155433654785 C 29.54922294616699 22.15879440307617 29.61382293701172 22.41552352905273 29.61382293701172 22.67461395263672 C 29.61382293701172 23.12359428405762 29.43879127502441 23.54588508605957 29.12098121643066 23.86371421813965 C 28.80356216430664 24.18155479431152 28.38131141662598 24.35653495788574 27.9319019317627 24.35653495788574 Z M 27.9319019317627 21.45866394042969 C 27.60724258422852 21.45866394042969 27.30192184448242 21.58518409729004 27.07219123840332 21.81490325927734 C 26.84247207641602 22.04462432861328 26.71595191955566 22.34993362426758 26.71595191955566 22.67461395263672 C 26.71595191955566 22.99929428100586 26.84247207641602 23.30460357666016 27.07220268249512 23.53432464599609 C 27.29276275634766 23.7548942565918 27.60611152648926 23.88140487670898 27.9319019317627 23.88140487670898 C 28.25769233703613 23.88140487670898 28.57104301452637 23.7548942565918 28.79161262512207 23.53431510925293 C 29.02134132385254 23.30461502075195 29.14787292480469 22.99929428100586 29.14787292480469 22.67461395263672 C 29.14787292480469 22.34993362426758 29.02134132385254 22.04461479187012 28.79160308837891 21.81489372253418 C 28.56188201904297 21.58518409729004 28.25656127929688 21.45866394042969 27.9319019317627 21.45866394042969 Z"/><path class="c" d="M 29.21048164367676 21.95634841918945 L 29.29051208496094 21.44349479675293 L 29.30362510681152 21.43037986755371 L 28.7885856628418 21.48476982116699 C 28.85189437866211 21.53057289123535 28.91202735900879 21.58177757263184 28.96836280822754 21.63811492919922 C 29.0644359588623 21.73417472839355 29.1455249786377 21.84118270874023 29.21048164367676 21.95634841918945 M 27.9319019317627 24.60653495788574 C 27.41608238220215 24.60653495788574 26.93069267272949 24.40561485290527 26.56604194641113 24.04048347473145 C 26.20091247558594 23.67534446716309 25.9999828338623 23.19044494628906 25.9999828338623 22.67461395263672 C 25.9999828338623 22.1583137512207 26.20091247558594 21.67339324951172 26.56651306152344 21.30875396728516 C 26.93113136291504 20.94358825683594 27.43146896362305 20.76119422912598 27.93196868896484 20.76119422912598 C 28.30858993530273 20.76119422912598 28.68536949157715 20.86457061767578 29.00411224365234 21.07112503051758 L 33.05487060546875 17.02038383483887 C 33.14928817749023 16.92595863342285 33.27280807495117 16.87874603271484 33.39632797241211 16.87874603271484 C 33.51984786987305 16.87874603271484 33.64336776733398 16.92595863342285 33.7377815246582 17.02038383483887 C 33.92664337158203 17.20922470092773 33.92664337158203 17.51447486877441 33.7377815246582 17.70331382751465 L 29.64406204223633 21.79704475402832 C 29.78268241882324 22.06606483459473 29.86382293701172 22.36261367797852 29.86382293701172 22.67461395263672 C 29.86382293701172 23.19044494628906 29.66289138793945 23.67534446716309 29.29776191711426 24.04048347473145 C 28.9331226348877 24.40561485290527 28.44773292541504 24.60653495788574 27.9319019317627 24.60653495788574 Z M 27.9319019317627 21.70866394042969 C 27.67399215698242 21.70866394042969 27.43154144287109 21.80911445617676 27.24897193908691 21.99168395996094 C 27.06640243530273 22.17424392700195 26.96595191955566 22.41670417785645 26.96595191955566 22.67461395263672 C 26.96595191955566 22.93253326416016 27.06640243530273 23.17498397827148 27.24897193908691 23.3575439453125 C 27.43153762817383 23.54011344909668 27.68171882629395 23.63139915466309 27.9319019317627 23.63139915466309 C 28.18208503723145 23.63139915466309 28.43226623535156 23.54011344909668 28.61483192443848 23.3575439453125 C 28.79741287231445 23.17498397827148 28.89787292480469 22.93253326416016 28.89787292480469 22.67461395263672 C 28.89787292480469 22.41670417785645 28.79741287231445 22.17424392700195 28.61483192443848 21.99168395996094 C 28.4322624206543 21.80911445617676 28.18981170654297 21.70866394042969 27.9319019317627 21.70866394042969 Z"/></g></svg>