<svg xmlns="http://www.w3.org/2000/svg" width="17.569" height="21.929" viewBox="0 0 17.569 21.929">
  <g id="noun_Search_3655710" transform="translate(-5 -2)">
    <path id="Path_2855" data-name="Path 2855" d="M5.533,2h10.68a.531.531,0,0,1,.266.07.543.543,0,0,1,.137.112l.017.021L20.9,7.537a.53.53,0,0,1,.12.336V21.843l1.361,1.144a.534.534,0,0,1-.687.817l-.783-.657a.532.532,0,0,1-.425.211H5.534A.534.534,0,0,1,5,22.824V2.5l0-.037.005-.035L5.018,2.4l0-.016A.533.533,0,0,1,5.533,2Zm.535,20.29H19.891l-1.469-1.235a.425.425,0,0,1-.032-.03,3.2,3.2,0,1,1,.685-.815l.035.028.842.707V8.407H16.213a.534.534,0,0,1-.534-.534V3.068H6.068Zm8.609-5.078a2.136,2.136,0,1,1,.262,3.009A2.137,2.137,0,0,1,14.677,17.212Zm-.066-2.931a.534.534,0,0,0-.534-.534H7.67a.534.534,0,0,0,0,1.068h6.407A.534.534,0,0,0,14.611,14.281Zm0-2.136a.534.534,0,0,0-.534-.534H7.67a.534.534,0,1,0,0,1.068h6.407A.534.534,0,0,0,14.611,12.145Zm0-2.136a.534.534,0,0,0-.534-.534H7.67a.534.534,0,0,0,0,1.068h6.407A.534.534,0,0,0,14.611,10.009Zm2.136-2.67h2.627L16.747,4.056Zm-4.272-.534a.534.534,0,0,0-.534-.534H7.67a.534.534,0,0,0,0,1.068h4.272A.534.534,0,0,0,12.475,6.806Z" fill-rule="evenodd"/>
  </g>
</svg>
