<svg xmlns="http://www.w3.org/2000/svg" width="18.905" height="18.033" viewBox="0 0 18.905 18.033"><defs><style>.a{fill:#fff;}</style></defs><g transform="translate(0 0)"><path class="a" d="M10.116,9.834,4.153,10.5a.57.57,0,0,0-.477.388.56.56,0,0,0,.158.59c1.773,1.618,4.436,4.04,4.436,4.04s-.731,3.524-1.216,5.875a.57.57,0,0,0,.222.573.562.562,0,0,0,.609.032c2.087-1.186,5.214-2.97,5.214-2.97l5.212,2.971a.564.564,0,0,0,.833-.6c-.484-2.352-1.212-5.876-1.212-5.876s2.664-2.422,4.436-4.037a.571.571,0,0,0,.158-.593.564.564,0,0,0-.475-.386c-2.386-.267-5.964-.663-5.964-.663L13.616,4.367a.572.572,0,0,0-.516-.333.564.564,0,0,0-.513.333C11.6,6.554,10.116,9.834,10.116,9.834Z" transform="translate(-3.649 -4.034)"/></g></svg>