<?xml version="1.0" encoding="UTF-8"?>
<!DOCTYPE svg PUBLIC "-//W3C//DTD SVG 1.1//EN" "http://www.w3.org/Graphics/SVG/1.1/DTD/svg11.dtd">
<!-- Creator: CorelDRAW 2020 (64-Bit) -->
<svg xmlns="http://www.w3.org/2000/svg" xml:space="preserve" width="0.732335in" height="0.633374in" version="1.1" style="shape-rendering:geometricPrecision; text-rendering:geometricPrecision; image-rendering:optimizeQuality; fill-rule:evenodd; clip-rule:evenodd"
viewBox="0 0 321.39 277.96"
 xmlns:xlink="http://www.w3.org/1999/xlink"
 xmlns:xodm="http://www.corel.com/coreldraw/odm/2003">
 <defs>
  <style type="text/css">
   <![CDATA[
    .fil2 {fill:none}
    .fil0 {fill:#202944}
    .fil1 {fill:#F1CD15}
   ]]>
  </style>
 </defs>
 <g id="Layer_x0020_1">
  <metadata id="CorelCorpID_0Corel-Layer"/>
  <g id="_3282529874896">
   <polygon class="fil0" points="-0,277.96 321.39,277.96 251.04,155.97 230.45,155.01 221.37,139.64 231.33,121.8 161.09,0 "/>
   <path class="fil1" d="M126.08 277.96l15.15 0 13.06 -20.96 17.85 -0.18 12.61 21.14 16.27 0 6.54 -1.88 -4.33 -30.6 13.56 -11.61 27.65 9.62 11.86 -17.64 -22.99 -20.65 2.92 -17.61 27.11 -10.3 -12.45 -21.59 -20.43 -0.69 -9.08 -15.37 9.96 -17.84 -12.35 -21.41 -22.98 17.99 -16.84 -5.93 -5.49 -28.75 -21.2 -1.46 -6.39 30.23 -16.71 6.28 -22.69 -18.49 -6.4 4.66 -7.8 13.45 11.55 21.67 -8.77 15.55 -24.56 0.35 -8.21 14.16 -1.62 6.53 28.66 11.55 3.28 17.55 -22.15 19.13 9.34 19.09 29.38 -9.58 13.79 11.33 -4.67 28.9 7.56 3.36zm36.85 -143.28c27.25,0 49.33,22.09 49.33,49.33 0,27.25 -22.09,49.33 -49.33,49.33 -27.25,0 -49.33,-22.09 -49.33,-49.33 0,-27.25 22.09,-49.33 49.33,-49.33zm0 24.33c13.81,0 25,11.19 25,25 0,13.81 -11.19,25 -25,25 -13.81,0 -25,-11.19 -25,-25 0,-13.81 11.19,-25 25,-25z"/>
   <circle class="fil2" cx="162.93" cy="184.02" r="25"/>
  </g>
 </g>
</svg>
