<svg xmlns="http://www.w3.org/2000/svg" width="17" height="17" viewBox="0 0 17 17">
  <g id="Group_6559" data-name="Group 6559" transform="translate(-0.333)">
    <circle id="Ellipse_52" data-name="Ellipse 52" cx="8.5" cy="8.5" r="8.5" transform="translate(0.333)" fill="#ccc" opacity="0.468"/>
    <path id="Path" d="M7.319,6.6,4.413,3.732,7.31.863,7.319.854A.445.445,0,0,0,7.31.234.469.469,0,0,0,6.974.1a.443.443,0,0,0-.309.135L3.769,3.1.781.135A.469.469,0,0,0,.445,0,.448.448,0,0,0,.009.459.435.435,0,0,0,.145.764L3.133,3.732.136,6.7A.459.459,0,0,0,0,7.033a.435.435,0,0,0,.136.306.473.473,0,0,0,.318.126.479.479,0,0,0,.327-.126l3-2.968,2.9,2.869A.441.441,0,0,0,7,7.366a.479.479,0,0,0,.327-.126.46.46,0,0,0,.136-.333A.445.445,0,0,0,7.319,6.6Z" transform="translate(5.014 5)" fill="#bf0000"/>
  </g>
</svg>
