<svg xmlns="http://www.w3.org/2000/svg" width="17.145" height="17.394" viewBox="0 0 17.145 17.394"><defs><style>.a{fill:none;stroke:#3e3e3e;stroke-width:1.3px;}</style></defs><g transform="translate(-16.378 -8.444)"><path class="a" d="M12.223,15.442,8.44,11.623,8.9,11.16,7.68,9.927l-1.436,1.45a3.4,3.4,0,0,1-.734,3.513,3.2,3.2,0,0,1-3.476.74l1.585-1.6-.365-1.477L1.79,12.176l-1.585,1.6a3.394,3.394,0,0,1,.733-3.513,3.2,3.2,0,0,1,3.476-.74l1.4-1.418.964.912L3.745,5.95,1.426,4.533l-1.4-2.4L1.853.22,4.228,1.638l1.406,2.4L10.79,9.249l.456-.461,3.782,3.819a1.988,1.988,0,0,1,0,2.835,1.935,1.935,0,0,1-2.8,0ZM7.771,6.137,9.414,4.473A3.4,3.4,0,0,1,10.146.96a3.2,3.2,0,0,1,3.48-.74l-1.588,1.6L12.4,3.3l1.466.369,1.585-1.6a3.411,3.411,0,0,1-.733,3.513,3.2,3.2,0,0,1-3.477.74L9.6,7.986Z" transform="translate(17.165 9.144)"/></g></svg>