<?xml version="1.0" encoding="UTF-8"?>
<svg width="19.859" height="21.75" viewBox="0 0 19.859 21.75" xmlns="http://www.w3.org/2000/svg">
 <path d="m8.3223 0a3.121 3.121 0 0 0-3.123 3.1211v0.66211h-4.2539a0.946 0.946 0 0 0 0 1.8906h1.418v12.955a3.121 3.121 0 0 0 3.1211 3.1211h8.8887a3.121 3.121 0 0 0 3.1211-3.1211v-12.955h1.418a0.946 0.946 0 1 0 0-1.8906h-4.2539v-0.66211a3.121 3.121 0 0 0-3.1211-3.1211h-3.2148zm-0.0019531 1.8926h3.2148a1.229 1.229 0 0 1 1.2305 1.2285v0.66211h-5.6738v-0.66211a1.229 1.229 0 0 1 1.2285-1.2285zm-4.0645 3.7812h11.344v12.955a1.229 1.229 0 0 1-1.2285 1.2285h-8.8867a1.229 1.229 0 0 1-1.2285-1.2285v-12.955zm3.3105 2.1289a0.946 0.946 0 0 0-0.94727 0.94531v8.5117a0.946 0.946 0 0 0 1.8926 0v-8.5117a0.946 0.946 0 0 0-0.94531-0.94531zm4.7285 0a0.946 0.946 0 0 0-0.94727 0.94531v8.5117a0.946 0.946 0 1 0 1.8906 0v-8.5117a0.946 0.946 0 0 0-0.94336-0.94531z"/>
</svg>
