<svg xmlns="http://www.w3.org/2000/svg" width="12" height="11" viewBox="0 0 12 11">
  <g id="Layer_2" data-name="Layer 2" transform="translate(0 -0.5)" opacity="0.72">
    <g id="invisible_box" data-name="invisible box">
      <rect id="Rectangle_3898" data-name="Rectangle 3898" width="12" height="11" transform="translate(0 0.5)" fill="none"/>
    </g>
    <g id="icons_Q2" data-name="icons Q2" transform="translate(0.937 0.933)">
      <path id="Path_3066" data-name="Path 3066" d="M13.227,7.454l-3.3-3.326a.445.445,0,0,0-.656,0L4.141,9.258A.468.468,0,0,0,4,9.585v3.3a.468.468,0,0,0,.468.468h3.3a.468.468,0,0,0,.328-.141L13.227,8.11a.445.445,0,0,0,0-.656ZM7.583,12.419H4.937V9.773l2.927-2.9,2.623,2.646Zm3.583-3.56L8.52,6.213,9.6,5.112l2.646,2.67Z" transform="translate(-4 -3.985)"/>
    </g>
  </g>
</svg>
