<svg xmlns="http://www.w3.org/2000/svg" width="19.5" height="19.5" viewBox="0 0 19.5 19.5"><defs><style>.a{fill:#5b6376;}</style></defs><g transform="translate(-9.5 -9.5)"><g transform="translate(17.585 13.139)"><g transform="translate(0 0)"><path class="a" d="M43.084,28.573h2.7v6.893h1.244v1.372H43.1V35.466h1.181v-5.52h-1.2ZM44,25.645a.958.958,0,0,1,.084-.395,1.083,1.083,0,0,1,.223-.327,1.069,1.069,0,0,1,.331-.223,1,1,0,0,1,.407-.084.958.958,0,0,1,.395.084,1.07,1.07,0,0,1,.55.55.958.958,0,0,1,.084.395,1,1,0,0,1-.084.407,1.175,1.175,0,0,1-.223.339,1.016,1.016,0,0,1-.327.231.958.958,0,0,1-.395.084,1.014,1.014,0,0,1-.738-.315,1.171,1.171,0,0,1-.223-.339A1,1,0,0,1,44,25.645Z" transform="translate(-43.084 -24.616)"/></g></g><g transform="translate(9.5 9.5)"><path class="a" d="M19.25,29A9.75,9.75,0,1,1,29,19.25,9.761,9.761,0,0,1,19.25,29Zm0-18.582a8.833,8.833,0,1,0,8.833,8.833A8.843,8.843,0,0,0,19.25,10.418Z" transform="translate(-9.5 -9.5)"/></g></g></svg>