<?xml version="1.0" encoding="UTF-8"?>
<svg width="19.859" height="19.859" version="1.1" viewBox="0 0 19.859 19.859" xmlns="http://www.w3.org/2000/svg">
 <path d="m9.9297 0a9.929 9.929 0 1 0 9.9277 9.9297 9.937 9.937 0 0 0-9.9277-9.9297zm-0.11914 1.6523a8.274 8.274 0 0 1 8.3887 8.2773 8.277 8.277 0 0 1-8.2695 8.2695 8.274 8.274 0 0 1-0.11914-16.547zm0.16016 2.9785a0.756 0.756 0 0 0-0.025391 0.0019531 0.885 0.885 0 0 0-0.84375 0.86133v0.13281a0.8 0.8 0 0 0 0.81055 0.79297h0.017578a0.864 0.864 0 0 0 0.82812-0.82617v-0.18359a0.756 0.756 0 0 0-0.78711-0.7793zm-0.041016 3.3945a0.819 0.819 0 0 0-0.82812 0.82812v5.623a0.8275 0.8275 0 0 0 1.6562 0v-5.623a0.83 0.83 0 0 0-0.82812-0.82812z"/>
</svg>
