<svg xmlns="http://www.w3.org/2000/svg" width="18" height="18" viewBox="0 0 18 18"><defs><style>.a{fill:none;}.b{fill:#424242;}</style></defs><rect class="a" width="18" height="18"/><g transform="translate(0.75 0.75)"><path class="b" d="M22.05,4.887a.75.75,0,0,0-.225-.525A8.1,8.1,0,0,0,16.05,2a8.25,8.25,0,1,0,0,16.5,8.1,8.1,0,0,0,5.775-2.363.75.75,0,1,0-1.05-1.05,6.75,6.75,0,1,1,0-9.675.712.712,0,0,0,1.05,0A.75.75,0,0,0,22.05,4.887Z" transform="translate(-7.8 -1.999)"/><path class="b" d="M2.231,17.226l2.963-3a.787.787,0,0,1,1.012-.075.713.713,0,0,1,.075,1.125L4.556,17h8.7a.75.75,0,0,1,.75.75h0a.75.75,0,0,1-.75.75h-8.7l1.725,1.725a.713.713,0,0,1-.075,1.125.788.788,0,0,1-1.013-.075l-2.962-3a.712.712,0,0,1,0-1.05Z" transform="translate(2.494 -9.5)"/></g></svg>