<svg xmlns="http://www.w3.org/2000/svg" width="16.688" height="16.688" viewBox="0 0 16.688 16.688"><defs><style>.a,.b{fill:#3e3e3e;}.a{stroke:#3e3e3e;stroke-width:0.5px;}</style></defs><g transform="translate(-0.75 -0.75)"><path class="a" d="M9.094,1a8.064,8.064,0,0,0-2.815.5l.235.632A7.448,7.448,0,1,1,4.372,3.375V5.721h.674V2.349H1.674v.674H3.74A8.094,8.094,0,1,0,9.094,1Z"/><path class="b" d="M17.788,22.1H17v.788h6.308V22.1h-.788V20.75l-1.808-1.808,1.808-1.808V15.788h.788V15H17v.788h.788v1.346L19.6,18.942,17.788,20.75Zm.788-5.288v-1.02h3.154v1.02l-1.577,1.577ZM20.154,19.5l1.577,1.577V22.1H18.577v-1.02Z" transform="translate(-10.716 -9.051)"/></g></svg>