<svg xmlns="http://www.w3.org/2000/svg" width="21.881" height="19.875" viewBox="0 0 21.881 19.875">
  <g id="under-construction" transform="translate(-0.001 0)">
    <path id="Exclusion_2" data-name="Exclusion 2" d="M21.162,19.875c-.129,0-.284,0-.431-.009h-.024c-.2-.005-.449-.013-.736-.013h-.2c-.554.005-1.086.008-1.589.008-.678,0-1.343-.005-1.978-.015-1.234-.021-2.354-.055-3.423-.106-.214-.011-.4-.013-.552-.015h-.146c-.334,0-.519,0-.592-.087-.1-.11.015-.311.259-.752l.007-.012.1-.193.007-.012c.343-.625.666-1.216,1.036-1.789a12.811,12.811,0,0,1,1.347-1.74l.164-.171-5.989-2.65,1.5,2.375a1.071,1.071,0,0,1,.164.624L9.936,18.4a1.08,1.08,0,0,1-1.081,1.027H8.812A1.083,1.083,0,0,1,7.784,18.3l.133-2.747-2.1-3.329L4.39,18.42a1.078,1.078,0,0,1-2.1-.481l1.739-7.563L0,8.582.316,6.888l.971.429L2.427,5.3a1.092,1.092,0,0,1,.756-.532l3.192-.549a1.181,1.181,0,0,1,.183-.015,1.069,1.069,0,0,1,.468.107l3.918,1.667a1.09,1.09,0,0,1,.631.764l1.178,5.4a1.09,1.09,0,0,1,.024.253l2.876,1.272,1.99-2.084.02-.009.034-.01a.991.991,0,0,1,.233-.028c1.714,0,3.231,4.663,3.671,6.46l.029.13c.238.969.348,1.411.149,1.609A.881.881,0,0,1,21.162,19.875ZM9.141,6.926h0L8.151,9.378l1.633.646-.644-3.1ZM5.891,5.765l-1.869.366L3.289,7.442l1.506.646,1.1-2.322ZM10.1,4.438a2.219,2.219,0,1,1,2.219-2.219A2.223,2.223,0,0,1,10.1,4.438Z" transform="translate(0)" fill="#3e3e3e"/>
  </g>
</svg>
