<svg xmlns="http://www.w3.org/2000/svg" width="20" height="20" viewBox="0 0 20 20"><g transform="translate(-2 -2)"><path d="M4,7H2V4A2,2,0,0,1,4,2H7V4H4Z"/><path d="M22,7H20V4H17V2h3a2,2,0,0,1,2,2Z"/><path d="M7,22H4a2,2,0,0,1-2-2V17H4v3H7Z"/><path d="M20,22H17V20h3V17h2v3A2,2,0,0,1,20,22Z"/><path d="M8,9a1,1,0,0,1-.71-.29l-1-1A1,1,0,0,1,7.71,6.29l1,1A1,1,0,0,1,8,9Z"/><path d="M16,9a1,1,0,0,1-.71-1.71l1-1a1,1,0,0,1,1.42,1.42l-1,1A1,1,0,0,1,16,9Z"/><path d="M7,18a1,1,0,0,1-.71-1.71l1-1a1,1,0,1,1,1.42,1.42l-1,1A1,1,0,0,1,7,18Z"/><path d="M17,18a1,1,0,0,1-.71-.29l-1-1a1,1,0,0,1,1.42-1.42l1,1A1,1,0,0,1,17,18Z"/></g></svg>